#N canvas 77 23 1171 727 10;
#X obj 137 110 soundfiler;
#X obj 138 176 soundfiler;
#X obj 136 241 soundfiler;
#X obj 868 46 table \$0-alpaca 44100;
#X obj 868 67 table \$0-cow 44100;
#X obj 868 88 table \$0-donkey 44100;
#X obj 868 109 table \$0-horse 44100;
#X obj 868 130 table \$0-pig 44100;
#X obj 868 151 table \$0-pony 44100;
#X obj 868 172 table \$0-rooster 44100;
#X obj 868 193 table \$0-sheep 44100;
#X obj 869 214 table \$0-turkey 44100;
#X obj 24 59 pack \$0;
#X msg 137 90 read -resize sound_samples/clean/alpaca.wav \$1-alpaca
;
#X obj 24 35 bng 15 250 50 0 empty empty empty 17 7 0 10 -262144 -1
-1;
#X msg 138 156 read -resize sound_samples/clean/cow.wav \$1-cow;
#X msg 136 221 read -resize sound_samples/clean/donkey.wav \$1-donkey
;
#X obj 136 312 soundfiler;
#X obj 136 384 soundfiler;
#X obj 496 109 soundfiler;
#X msg 136 292 read -resize sound_samples/clean/horse.wav \$1-horse
;
#X msg 136 364 read -resize sound_samples/clean/pig.wav \$1-pig;
#X msg 496 89 read -resize sound_samples/clean/pony.wav \$1-pony;
#X obj 496 176 soundfiler;
#X obj 497 244 soundfiler;
#X obj 497 312 soundfiler;
#X msg 496 156 read -resize sound_samples/clean/rooster.wav \$1-rooster
;
#X msg 497 224 read -resize sound_samples/clean/sheep.wav \$1-sheep
;
#X msg 497 292 read -resize sound_samples/clean/turkey.wav \$1-turkey
;
#X obj 24 13 loadbang;
#X text 81 13 load all samples into tables;
#X text 866 24 tables;
#X obj 58 697 tabread4~ \$0-alpaca;
#X floatatom 138 198 15 0 0 0 - - -;
#X obj 58 670 line~;
#X msg 58 645 1 \, \$1 \$2;
#X obj 58 625 pack f f;
#X obj 103 584 / 44100;
#X obj 58 562 t f f;
#X msg 58 540 132808;
#X obj 103 602 * 1000;
#X obj 189 668 line~;
#X msg 189 643 1 \, \$1 \$2;
#X obj 189 623 pack f f;
#X obj 234 582 / 44100;
#X obj 189 560 t f f;
#X obj 234 600 * 1000;
#X obj 189 695 tabread4~ \$0-cow;
#X msg 189 538 93779;
#X floatatom 137 132 15 0 0 0 - - -;
#X floatatom 136 263 15 0 0 0 - - -;
#X floatatom 136 334 15 0 0 0 - - -;
#X floatatom 136 406 15 0 0 0 - - -;
#X floatatom 496 130 15 0 0 0 - - -;
#X floatatom 496 197 15 0 0 0 - - -;
#X floatatom 497 266 15 0 0 0 - - -;
#X floatatom 497 333 15 0 0 0 - - -;
#X obj 305 666 line~;
#X msg 305 641 1 \, \$1 \$2;
#X obj 305 621 pack f f;
#X obj 350 580 / 44100;
#X obj 305 558 t f f;
#X obj 350 598 * 1000;
#X obj 305 693 tabread4~ \$0-donkey;
#X msg 305 534 69096;
#X obj 434 665 line~;
#X msg 434 640 1 \, \$1 \$2;
#X obj 434 620 pack f f;
#X obj 479 579 / 44100;
#X obj 434 557 t f f;
#X obj 479 597 * 1000;
#X obj 565 663 line~;
#X msg 565 638 1 \, \$1 \$2;
#X obj 565 618 pack f f;
#X obj 610 577 / 44100;
#X obj 565 555 t f f;
#X obj 610 595 * 1000;
#X obj 681 661 line~;
#X msg 681 636 1 \, \$1 \$2;
#X obj 681 616 pack f f;
#X obj 726 575 / 44100;
#X obj 681 553 t f f;
#X obj 726 593 * 1000;
#X msg 434 535 53880;
#X msg 565 533 37946;
#X msg 681 529 94863;
#X obj 681 688 tabread4~ \$0-pony;
#X obj 565 690 tabread4~ \$0-pig;
#X obj 434 692 tabread4~ \$0-horse;
#X obj 804 660 line~;
#X msg 804 635 1 \, \$1 \$2;
#X obj 804 615 pack f f;
#X obj 849 574 / 44100;
#X obj 804 552 t f f;
#X obj 849 592 * 1000;
#X obj 935 658 line~;
#X msg 935 633 1 \, \$1 \$2;
#X obj 935 613 pack f f;
#X obj 980 572 / 44100;
#X obj 935 550 t f f;
#X obj 980 590 * 1000;
#X obj 1051 656 line~;
#X msg 1051 631 1 \, \$1 \$2;
#X obj 1051 611 pack f f;
#X obj 1096 570 / 44100;
#X obj 1051 548 t f f;
#X obj 1096 588 * 1000;
#X msg 804 530 113003;
#X msg 935 528 47432;
#X msg 1051 524 37946;
#X obj 804 687 tabread4~ \$0-rooster;
#X obj 935 685 tabread4~ \$0-sheep;
#X obj 1051 683 tabread4~ \$0-turkey;
#X obj 183 749 clip~ -1 1;
#X obj 182 808 outlet~;
#X obj 415 423 hradio 15 1 0 9 empty empty empty 0 -8 0 10 -262144
-1 -1 6;
#X obj 415 444 route 0 1 2 3 4 5 6 7 8;
#X obj 415 396 inlet;
#X obj 182 782 *~ 0.1;
#X connect 0 0 49 0;
#X connect 1 0 33 0;
#X connect 2 0 50 0;
#X connect 12 0 13 0;
#X connect 12 0 15 0;
#X connect 12 0 16 0;
#X connect 12 0 20 0;
#X connect 12 0 21 0;
#X connect 12 0 22 0;
#X connect 12 0 26 0;
#X connect 12 0 27 0;
#X connect 12 0 28 0;
#X connect 13 0 0 0;
#X connect 14 0 12 0;
#X connect 15 0 1 0;
#X connect 16 0 2 0;
#X connect 17 0 51 0;
#X connect 18 0 52 0;
#X connect 19 0 53 0;
#X connect 20 0 17 0;
#X connect 21 0 18 0;
#X connect 22 0 19 0;
#X connect 23 0 54 0;
#X connect 24 0 55 0;
#X connect 25 0 56 0;
#X connect 26 0 23 0;
#X connect 27 0 24 0;
#X connect 28 0 25 0;
#X connect 29 0 14 0;
#X connect 32 0 113 0;
#X connect 34 0 32 0;
#X connect 35 0 34 0;
#X connect 36 0 35 0;
#X connect 37 0 40 0;
#X connect 38 0 36 0;
#X connect 38 1 37 0;
#X connect 39 0 38 0;
#X connect 40 0 36 1;
#X connect 41 0 47 0;
#X connect 42 0 41 0;
#X connect 43 0 42 0;
#X connect 44 0 46 0;
#X connect 45 0 43 0;
#X connect 45 1 44 0;
#X connect 46 0 43 1;
#X connect 47 0 113 0;
#X connect 48 0 45 0;
#X connect 57 0 63 0;
#X connect 58 0 57 0;
#X connect 59 0 58 0;
#X connect 60 0 62 0;
#X connect 61 0 59 0;
#X connect 61 1 60 0;
#X connect 62 0 59 1;
#X connect 63 0 113 0;
#X connect 64 0 61 0;
#X connect 65 0 88 0;
#X connect 66 0 65 0;
#X connect 67 0 66 0;
#X connect 68 0 70 0;
#X connect 69 0 67 0;
#X connect 69 1 68 0;
#X connect 70 0 67 1;
#X connect 71 0 87 0;
#X connect 72 0 71 0;
#X connect 73 0 72 0;
#X connect 74 0 76 0;
#X connect 75 0 73 0;
#X connect 75 1 74 0;
#X connect 76 0 73 1;
#X connect 77 0 86 0;
#X connect 78 0 77 0;
#X connect 79 0 78 0;
#X connect 80 0 82 0;
#X connect 81 0 79 0;
#X connect 81 1 80 0;
#X connect 82 0 79 1;
#X connect 83 0 69 0;
#X connect 84 0 75 0;
#X connect 85 0 81 0;
#X connect 86 0 113 0;
#X connect 87 0 113 0;
#X connect 88 0 113 0;
#X connect 89 0 110 0;
#X connect 90 0 89 0;
#X connect 91 0 90 0;
#X connect 92 0 94 0;
#X connect 93 0 91 0;
#X connect 93 1 92 0;
#X connect 94 0 91 1;
#X connect 95 0 111 0;
#X connect 96 0 95 0;
#X connect 97 0 96 0;
#X connect 98 0 100 0;
#X connect 99 0 97 0;
#X connect 99 1 98 0;
#X connect 100 0 97 1;
#X connect 101 0 112 0;
#X connect 102 0 101 0;
#X connect 103 0 102 0;
#X connect 104 0 106 0;
#X connect 105 0 103 0;
#X connect 105 1 104 0;
#X connect 106 0 103 1;
#X connect 107 0 93 0;
#X connect 108 0 99 0;
#X connect 109 0 105 0;
#X connect 110 0 113 0;
#X connect 111 0 113 0;
#X connect 112 0 113 0;
#X connect 113 0 118 0;
#X connect 115 0 116 0;
#X connect 116 0 39 0;
#X connect 116 1 48 0;
#X connect 116 2 64 0;
#X connect 116 3 83 0;
#X connect 116 4 84 0;
#X connect 116 5 85 0;
#X connect 116 6 107 0;
#X connect 116 7 108 0;
#X connect 116 8 109 0;
#X connect 117 0 115 0;
#X connect 118 0 114 0;
#X coords 0 727 1 726 162 35 0;
