#N canvas 149 126 834 432 10;
#X declare -lib mrpeach;
#X obj 36 27 import mrpeach;
#X obj 33 347 udpsend;
#X obj 130 308 packOSC;
#X msg 52 110 disconnect;
#X obj 130 244 pack f f;
#X msg 130 270 send /on \$1 \$2;
#X floatatom 196 227 5 0 0 0 - - -;
#X msg 267 33 60;
#X msg 295 33 61;
#X msg 325 33 62;
#X msg 353 33 63;
#X msg 385 33 64;
#X msg 413 33 65;
#X msg 443 33 66;
#X msg 471 33 67;
#X msg 500 33 68;
#X msg 528 33 69;
#X msg 558 33 70;
#X msg 586 33 71;
#X msg 36 70 connect 192.168.0.2 80;
#X msg 247 228 60;
#X msg 247 273 send /off \$1;
#X msg 342 274 send /env/attack \$1;
#X msg 472 275 send /env/release \$1;
#X msg 342 236 100;
#X msg 472 235 500;
#X msg 606 275 send /pan \$1;
#X obj 609 243 hsl 128 15 0 1 0 0 empty empty empty -2 -8 0 10 -262144
-1 -1 0 1;
#X connect 2 0 1 0;
#X connect 3 0 1 0;
#X connect 4 0 5 0;
#X connect 5 0 2 0;
#X connect 6 0 4 1;
#X connect 7 0 4 0;
#X connect 8 0 4 0;
#X connect 9 0 4 0;
#X connect 10 0 4 0;
#X connect 11 0 4 0;
#X connect 12 0 4 0;
#X connect 13 0 4 0;
#X connect 14 0 4 0;
#X connect 15 0 4 0;
#X connect 16 0 4 0;
#X connect 17 0 4 0;
#X connect 18 0 4 0;
#X connect 19 0 1 0;
#X connect 20 0 21 0;
#X connect 21 0 2 0;
#X connect 22 0 2 0;
#X connect 23 0 2 0;
#X connect 24 0 22 0;
#X connect 25 0 23 0;
#X connect 26 0 2 0;
#X connect 27 0 26 0;
