#N canvas 77 23 1171 727 10;
#X obj 137 110 soundfiler;
#X obj 138 176 soundfiler;
#X obj 136 241 soundfiler;
#X obj 24 59 pack \$0;
#X obj 24 35 bng 15 250 50 0 empty empty empty 17 7 0 10 -262144 -1
-1;
#X obj 136 324 soundfiler;
#X obj 136 414 soundfiler;
#X obj 509 122 soundfiler;
#X obj 508 293 soundfiler;
#X obj 508 378 soundfiler;
#X obj 24 13 loadbang;
#X text 81 13 load all samples into tables;
#X text 866 24 tables;
#X floatatom 138 198 15 0 0 0 - - -;
#X obj 58 670 line~;
#X msg 58 645 1 \, \$1 \$2;
#X obj 58 625 pack f f;
#X obj 103 584 / 44100;
#X obj 58 562 t f f;
#X obj 103 602 * 1000;
#X obj 189 668 line~;
#X msg 189 643 1 \, \$1 \$2;
#X obj 189 623 pack f f;
#X obj 234 582 / 44100;
#X obj 189 560 t f f;
#X obj 234 600 * 1000;
#X floatatom 137 132 15 0 0 0 - - -;
#X floatatom 136 263 15 0 0 0 - - -;
#X floatatom 136 346 15 0 0 0 - - -;
#X floatatom 136 436 15 0 0 0 - - -;
#X floatatom 509 143 15 0 0 0 - - -;
#X floatatom 508 229 15 0 0 0 - - -;
#X floatatom 508 315 15 0 0 0 - - -;
#X floatatom 508 399 15 0 0 0 - - -;
#X obj 305 666 line~;
#X msg 305 641 1 \, \$1 \$2;
#X obj 305 621 pack f f;
#X obj 350 580 / 44100;
#X obj 305 558 t f f;
#X obj 350 598 * 1000;
#X obj 434 665 line~;
#X msg 434 640 1 \, \$1 \$2;
#X obj 434 620 pack f f;
#X obj 479 579 / 44100;
#X obj 434 557 t f f;
#X obj 479 597 * 1000;
#X obj 586 663 line~;
#X msg 586 638 1 \, \$1 \$2;
#X obj 586 618 pack f f;
#X obj 631 577 / 44100;
#X obj 586 555 t f f;
#X obj 631 595 * 1000;
#X obj 736 661 line~;
#X msg 736 636 1 \, \$1 \$2;
#X obj 736 616 pack f f;
#X obj 781 575 / 44100;
#X obj 736 553 t f f;
#X obj 781 593 * 1000;
#X obj 879 660 line~;
#X msg 879 635 1 \, \$1 \$2;
#X obj 879 615 pack f f;
#X obj 924 574 / 44100;
#X obj 879 552 t f f;
#X obj 924 592 * 1000;
#X obj 1031 658 line~;
#X msg 1031 633 1 \, \$1 \$2;
#X obj 1031 613 pack f f;
#X obj 1076 572 / 44100;
#X obj 1031 550 t f f;
#X obj 1076 590 * 1000;
#X obj 1187 656 line~;
#X msg 1187 631 1 \, \$1 \$2;
#X obj 1187 611 pack f f;
#X obj 1212 570 / 44100;
#X obj 1187 548 t f f;
#X obj 1212 588 * 1000;
#X obj 183 749 clip~ -1 1;
#X obj 184 836 outlet~;
#X obj 415 442 hradio 15 1 0 9 empty empty empty 0 -8 0 10 -262144
-1 -1 1;
#X obj 415 463 route 0 1 2 3 4 5 6 7 8;
#X obj 415 422 inlet;
#X obj 184 810 *~ 0.1;
#X msg 137 90 read -resize sound_samples/clean_sea/wave.wav \$1-wave
;
#X msg 138 156 read -resize sound_samples/clean_sea/bubbles.wav \$1-bubbles
;
#X msg 136 221 read -resize sound_samples/clean_sea/sonar.wav \$1-sonar
;
#X msg 136 376 read -resize sound_samples/clean_sea/humpback_3.wav
\$1-humpback-3;
#X obj 508 208 soundfiler;
#X msg 508 169 read -resize sound_samples/clean_sea/humpback_2.wav
\$1-humpback-2;
#X msg 508 257 read -resize sound_samples/clean_sea/humpback_4.wav
\$1-humpback-4;
#X msg 508 341 read -resize sound_samples/clean_sea/donkey_kong.wav
\$1-donkey-kong;
#X obj 868 46 table \$0-wave 44100;
#X obj 868 67 table \$0-bubbles 44100;
#X obj 868 88 table \$0-sonar 44100;
#X msg 136 292 read -resize sound_samples/clean_sea/humpback_1.wav
\$1-humpback-1;
#X obj 868 130 table \$0-humpback-2 44100;
#X obj 868 109 table \$0-humpback-1 44100;
#X obj 868 172 table \$0-humpback-3 44100;
#X obj 868 193 table \$0-humpback-4 44100;
#X obj 869 214 table \$0-donkey-kong 44100;
#X obj 58 697 tabread4~ \$0-wave;
#X obj 189 695 tabread4~ \$0-bubbles;
#X obj 305 693 tabread4~ \$0-sonar;
#X obj 434 692 tabread4~ \$0-humpback-1;
#X obj 586 690 tabread4~ \$0-humpback-3;
#X obj 736 688 tabread4~ \$0-sea-lion;
#X msg 509 89 read -resize sound_samples/clean_sea/sea_lion.wav \$1-sea-lion
;
#X obj 868 151 table \$0-sea-lion 44100;
#X obj 879 687 tabread4~ \$0-humpback-2;
#X obj 1031 685 tabread4~ \$0-humpback-4;
#X obj 1187 683 tabread4~ \$0-donkey-kong;
#X msg 58 540 354888;
#X msg 189 538 165376;
#X msg 305 534 176400;
#X msg 434 535 86113;
#X msg 586 533 172225;
#X msg 736 529 586274;
#X msg 879 530 103335;
#X msg 1031 528 197762;
#X msg 1187 524 241115;
#X obj 183 777 expr~ 1.5*$v1*(1 - 0.33333*$v1*$v1);
#X connect 0 0 26 0;
#X connect 1 0 13 0;
#X connect 2 0 27 0;
#X connect 3 0 82 0;
#X connect 3 0 83 0;
#X connect 3 0 84 0;
#X connect 3 0 93 0;
#X connect 3 0 85 0;
#X connect 3 0 105 0;
#X connect 3 0 87 0;
#X connect 3 0 88 0;
#X connect 3 0 89 0;
#X connect 4 0 3 0;
#X connect 5 0 28 0;
#X connect 6 0 29 0;
#X connect 7 0 30 0;
#X connect 8 0 32 0;
#X connect 9 0 33 0;
#X connect 10 0 4 0;
#X connect 14 0 99 0;
#X connect 15 0 14 0;
#X connect 16 0 15 0;
#X connect 17 0 19 0;
#X connect 18 0 16 0;
#X connect 18 1 17 0;
#X connect 19 0 16 1;
#X connect 20 0 100 0;
#X connect 21 0 20 0;
#X connect 22 0 21 0;
#X connect 23 0 25 0;
#X connect 24 0 22 0;
#X connect 24 1 23 0;
#X connect 25 0 22 1;
#X connect 34 0 101 0;
#X connect 35 0 34 0;
#X connect 36 0 35 0;
#X connect 37 0 39 0;
#X connect 38 0 36 0;
#X connect 38 1 37 0;
#X connect 39 0 36 1;
#X connect 40 0 102 0;
#X connect 41 0 40 0;
#X connect 42 0 41 0;
#X connect 43 0 45 0;
#X connect 44 0 42 0;
#X connect 44 1 43 0;
#X connect 45 0 42 1;
#X connect 46 0 103 0;
#X connect 47 0 46 0;
#X connect 48 0 47 0;
#X connect 49 0 51 0;
#X connect 50 0 48 0;
#X connect 50 1 49 0;
#X connect 51 0 48 1;
#X connect 52 0 104 0;
#X connect 53 0 52 0;
#X connect 54 0 53 0;
#X connect 55 0 57 0;
#X connect 56 0 54 0;
#X connect 56 1 55 0;
#X connect 57 0 54 1;
#X connect 58 0 107 0;
#X connect 59 0 58 0;
#X connect 60 0 59 0;
#X connect 61 0 63 0;
#X connect 62 0 60 0;
#X connect 62 1 61 0;
#X connect 63 0 60 1;
#X connect 64 0 108 0;
#X connect 65 0 64 0;
#X connect 66 0 65 0;
#X connect 67 0 69 0;
#X connect 68 0 66 0;
#X connect 68 1 67 0;
#X connect 69 0 66 1;
#X connect 70 0 109 0;
#X connect 71 0 70 0;
#X connect 72 0 71 0;
#X connect 73 0 75 0;
#X connect 74 0 72 0;
#X connect 74 1 73 0;
#X connect 75 0 72 1;
#X connect 76 0 119 0;
#X connect 78 0 79 0;
#X connect 79 0 110 0;
#X connect 79 1 111 0;
#X connect 79 2 112 0;
#X connect 79 3 113 0;
#X connect 79 4 114 0;
#X connect 79 5 115 0;
#X connect 79 6 116 0;
#X connect 79 7 117 0;
#X connect 79 8 118 0;
#X connect 80 0 78 0;
#X connect 81 0 77 0;
#X connect 82 0 0 0;
#X connect 83 0 1 0;
#X connect 84 0 2 0;
#X connect 85 0 6 0;
#X connect 86 0 31 0;
#X connect 87 0 86 0;
#X connect 88 0 8 0;
#X connect 89 0 9 0;
#X connect 93 0 5 0;
#X connect 99 0 76 0;
#X connect 100 0 76 0;
#X connect 101 0 76 0;
#X connect 102 0 76 0;
#X connect 103 0 76 0;
#X connect 104 0 76 0;
#X connect 105 0 7 0;
#X connect 107 0 76 0;
#X connect 108 0 76 0;
#X connect 109 0 76 0;
#X connect 110 0 18 0;
#X connect 111 0 24 0;
#X connect 112 0 38 0;
#X connect 113 0 44 0;
#X connect 114 0 50 0;
#X connect 115 0 56 0;
#X connect 116 0 62 0;
#X connect 117 0 68 0;
#X connect 118 0 74 0;
#X connect 119 0 81 0;
#X coords 0 727 1 726 162 35 0;
