#N canvas 247 45 924 513 10;
#X declare -lib mrpeach;
#X obj 118 184 mtof~;
#X obj 532 111 bng 15 250 50 0 empty empty empty 17 7 0 10 -262144
-1 -1;
#N canvas 14 84 1280 608 osc-parsing 1;
#X obj 46 45 import mrpeach;
#X obj 46 106 unpackOSC;
#X obj 347 175 routeOSC /on;
#X obj 482 172 routeOSC /off;
#X text 44 25 OSC parsing;
#X obj 637 175 routeOSC /env;
#X obj 637 984 routeOSC /attack;
#X obj 766 269 routeOSC /release;
#X obj 936 173 routeOSC /pan;
#X obj 1106 173 routeOSC /lfo;
#X obj 679 744 routeOSC /decay;
#X obj 706 506 routeOSC /sustain;
#X obj 1106 339 routeOSC /freq;
#X obj 1246 221 routeOSC /amount;
#X text 388 31 /on clientID 60 100;
#X obj 347 199 unpack f f f;
#X text 220 10 example messages:;
#X text 387 45 /off clientID 60;
#X text 532 31 /env/attack clientID 10;
#X text 532 44 /env/decay clientID 20;
#X text 531 57 /env/sustain clientID 50;
#X text 531 69 /env/release clientID 100;
#X text 696 31 /pan clientID 0.5;
#X text 820 31 /lfo/freq clientID 2;
#X text 820 45 /lfo/amount clientID 5;
#X obj 679 765 unpack f f;
#X obj 706 527 unpack f f;
#X obj 766 293 unpack f f;
#X obj 1106 364 unpack f f;
#X obj 1246 244 unpack f f;
#X text 240 31 /connect clientID;
#X text 240 45 /disconnect clientID;
#X obj 46 170 routeOSC /connect;
#X obj 188 173 routeOSC /disconnect;
#X obj 62 201 print con-clientID;
#X obj 207 204 print dis-clientID;
#X obj 348 304 pack f f f;
#X obj 348 483 route 0 1;
#X obj 348 523 unpack;
#X obj 375 596 s 0-notenum;
#X obj 381 550 s 0-velocity;
#X obj 348 620 s 0-trigger;
#X obj 474 525 unpack;
#X text 387 215 nn;
#X text 424 215 vel;
#X text 352 215 cID;
#X text 352 508 voice 0;
#X text 472 508 voice 1;
#X obj 482 311 route 0 1;
#X obj 509 456 s 0-notenum;
#X text 544 211 nn;
#X text 485 211 cID;
#X text 491 415 voice 0;
#X text 521 335 voice 1;
#X obj 482 196 unpack f f;
#X obj 482 282 pack f f;
#X obj 501 594 s 1-notenum;
#X obj 507 552 s 1-velocity;
#X obj 474 615 s 1-trigger;
#X obj 474 574 t 1 f;
#X obj 534 376 s 1-notenum;
#X obj 348 572 t b f;
#X msg 348 596 1;
#X msg 474 594 1;
#X obj 482 433 t b f;
#X msg 482 454 0;
#X msg 507 375 0;
#X obj 507 353 t b f;
#X obj 639 1136 route 0 1;
#X text 640 1030 cID;
#X text 650 1191 voice 0;
#X text 678 1160 voice 1;
#X obj 639 1107 pack f f;
#X text 699 1030 attack;
#X obj 637 1012 unpack f f;
#X obj 664 1174 s 1-attack;
#X obj 639 1207 s 0-attack;
#X obj 347 240 s on-get-voice;
#X obj 46 74 udpreceive 1235;
#X obj -2 655 print coll-out;
#X obj 62 144 print osc-message;
#X text 1110 382 cID;
#X text 1167 381 lfo-freq;
#X obj 1106 467 pack f f;
#X obj 1106 506 route 0 1;
#X text 1114 584 voice 0;
#X text 1145 538 voice 1;
#X obj 1106 600 s 0-lfo-freq;
#X obj 1131 556 s 1-lfo-freq;
#N canvas 102 247 986 470 client-dict 0;
#X obj 272 356 coll;
#C restore;
#X text 28 20 we need a coll for each of the messages that we will
be getting;
#X text 27 57 for a connect message: add the client ID to every single
one of the colls;
#X text 29 96 for a disconnect message: remove that client ID from
every single one of the colls;
#X obj 34 222 inlet;
#X obj 97 273 counter 9;
#X obj 97 248 bng 15 250 50 0 empty empty empty 17 7 0 10 -262144 -1
-1;
#X floatatom 97 299 5 0 0 0 - - -;
#X obj 34 330 pack f f;
#X obj 272 384 outlet;
#X msg 167 245 remove \$1;
#X obj 167 223 inlet;
#X text 32 201 connect;
#X text 167 203 disconnect;
#X text 271 192 on;
#X obj 272 211 inlet;
#X text 337 195 off;
#X obj 167 268 s discon;
#X obj 34 364 s con;
#X obj 280 257 r con;
#X obj 280 278 r discon;
#X obj 337 355 coll;
#C restore;
#X obj 337 384 outlet;
#X obj 337 213 inlet;
#X obj 346 257 r con;
#X obj 347 279 r discon;
#X obj 423 359 coll;
#C restore;
#X obj 423 387 outlet;
#X obj 423 214 inlet;
#X obj 436 253 r con;
#X obj 437 274 r discon;
#X obj 502 360 coll;
#C restore;
#X obj 502 388 outlet;
#X obj 502 215 inlet;
#X obj 510 251 r con;
#X obj 512 272 r discon;
#X text 422 195 env/attack;
#X text 500 194 env/decay;
#X obj 575 358 coll;
#C restore;
#X obj 575 386 outlet;
#X obj 575 213 inlet;
#X obj 588 252 r con;
#X obj 589 273 r discon;
#X obj 654 359 coll;
#C restore;
#X obj 654 387 outlet;
#X obj 654 214 inlet;
#X obj 662 250 r con;
#X obj 664 271 r discon;
#X text 574 194 env/sustain;
#X text 654 193 env/release;
#X obj 736 359 coll;
#C restore;
#X obj 736 387 outlet;
#X obj 736 214 inlet;
#X obj 744 260 r con;
#X obj 744 281 r discon;
#X obj 801 358 coll;
#C restore;
#X obj 801 387 outlet;
#X obj 801 216 inlet;
#X obj 810 260 r con;
#X obj 811 282 r discon;
#X obj 887 362 coll;
#C restore;
#X obj 887 390 outlet;
#X obj 887 217 inlet;
#X obj 900 256 r con;
#X obj 901 277 r discon;
#X text 735 195 pan;
#X text 797 198 lfo/freq;
#X text 886 198 lfo/attack;
#X msg 230 297 dump;
#X msg 183 303 clear;
#X connect 0 0 9 0;
#X connect 4 0 6 0;
#X connect 4 0 8 0;
#X connect 5 0 7 0;
#X connect 6 0 5 0;
#X connect 7 0 8 1;
#X connect 8 0 18 0;
#X connect 10 0 17 0;
#X connect 11 0 10 0;
#X connect 15 0 0 0;
#X connect 19 0 0 0;
#X connect 20 0 0 0;
#X connect 21 0 22 0;
#X connect 23 0 21 0;
#X connect 24 0 21 0;
#X connect 25 0 21 0;
#X connect 26 0 27 0;
#X connect 28 0 26 0;
#X connect 29 0 26 0;
#X connect 30 0 26 0;
#X connect 31 0 32 0;
#X connect 33 0 31 0;
#X connect 34 0 31 0;
#X connect 35 0 31 0;
#X connect 38 0 39 0;
#X connect 40 0 38 0;
#X connect 41 0 38 0;
#X connect 42 0 38 0;
#X connect 43 0 44 0;
#X connect 45 0 43 0;
#X connect 46 0 43 0;
#X connect 47 0 43 0;
#X connect 50 0 51 0;
#X connect 52 0 50 0;
#X connect 53 0 50 0;
#X connect 54 0 50 0;
#X connect 55 0 56 0;
#X connect 57 0 55 0;
#X connect 58 0 55 0;
#X connect 59 0 55 0;
#X connect 60 0 61 0;
#X connect 62 0 60 0;
#X connect 63 0 60 0;
#X connect 64 0 60 0;
#X connect 68 0 0 0;
#X connect 69 0 0 0;
#X connect 69 0 21 0;
#X connect 69 0 26 0;
#X connect 69 0 31 0;
#X connect 69 0 38 0;
#X connect 69 0 43 0;
#X connect 69 0 50 0;
#X connect 69 0 55 0;
#X connect 69 0 60 0;
#X restore 46 437 pd client-dict;
#X obj 62 233 r on-get-voice;
#X obj 46 631 s on-voice-ind;
#X obj 348 272 r on-voice-ind;
#X obj 70 255 r off-get-voice;
#X obj 482 229 s off-get-voice;
#X obj 482 253 r off-voice-ind;
#X obj 56 610 s off-voice-ind;
#X obj 118 392 r lfo-freq-get-voice;
#X obj 127 461 s lfo-amount-voice-ind;
#X obj 127 414 r lfo-amount-get-voice;
#X obj 116 482 s lfo-freq-voice-ind;
#X obj 1106 413 s lfo-freq-get-voice;
#X obj 1106 439 r lfo-freq-voice-ind;
#X text 1252 263 cID;
#X obj 1246 349 pack f f;
#X obj 1246 388 route 0 1;
#X text 1254 466 voice 0;
#X text 1285 420 voice 1;
#X text 1302 263 lfo-amount;
#X obj 1246 295 s lfo-amount-get-voice;
#X obj 1246 321 r lfo-amount-voice-ind;
#X obj 1271 438 s 1-lfo-amount;
#X obj 1246 482 s 0-lfo-amount;
#X obj 78 278 r env-attack-get-voice;
#X obj 66 589 s env-attack-voice-ind;
#X obj 637 1048 s env-attack-get-voice;
#X obj 639 1078 r env-attack-voice-ind;
#X obj 681 886 route 0 1;
#X text 684 780 cID;
#X text 692 934 voice 0;
#X text 720 904 voice 1;
#X obj 681 857 pack f f;
#X text 743 780 decay;
#X obj 679 798 s env-decay-get-voice;
#X obj 681 828 r env-decay-voice-ind;
#X obj 706 918 s 1-decay;
#X obj 681 950 s 0-decay;
#X obj 708 651 route 0 1;
#X text 711 545 cID;
#X text 719 699 voice 0;
#X text 747 669 voice 1;
#X obj 708 622 pack f f;
#X text 770 545 sustain;
#X obj 706 563 s env-sustain-get-voice;
#X obj 708 593 r env-sustain-voice-ind;
#X obj 768 418 route 0 1;
#X text 771 312 cID;
#X text 779 466 voice 0;
#X text 807 436 voice 1;
#X obj 768 389 pack f f;
#X text 830 312 release;
#X obj 766 330 s env-release-get-voice;
#X obj 768 360 r env-release-voice-ind;
#X obj 793 450 s 1-release;
#X obj 768 482 s 0-release;
#X obj 733 683 s 1-sustain;
#X obj 708 715 s 0-sustain;
#X obj 86 299 r env-decay-get-voice;
#X obj 94 321 r env-sustain-get-voice;
#X obj 102 344 r env-release-get-voice;
#X obj 76 567 s env-decay-voice-ind;
#X obj 86 546 s env-sustain-voice-ind;
#X obj 96 525 s env-release-voice-ind;
#X obj 938 319 route 0 1;
#X text 941 213 cID;
#X text 949 367 voice 0;
#X text 977 337 voice 1;
#X obj 938 290 pack f f;
#X text 998 211 pan;
#X obj 936 194 unpack f f;
#X obj 936 231 s pan-get-voice;
#X obj 938 261 r pan-voice-ind;
#X obj 963 351 s 1-pan;
#X obj 938 383 s 0-pan;
#X obj 110 369 r pan-get-voice;
#X obj 106 503 s pan-voice-ind;
#X obj 508 395 s 1-trigger;
#X obj 482 477 s 1-trigger;
#X connect 1 0 2 0;
#X connect 1 0 3 0;
#X connect 1 0 5 0;
#X connect 1 0 8 0;
#X connect 1 0 9 0;
#X connect 1 0 32 0;
#X connect 1 0 33 0;
#X connect 1 0 80 0;
#X connect 2 0 15 0;
#X connect 3 0 54 0;
#X connect 5 0 6 0;
#X connect 5 0 7 0;
#X connect 5 0 10 0;
#X connect 5 0 11 0;
#X connect 6 0 74 0;
#X connect 7 0 27 0;
#X connect 8 0 159 0;
#X connect 9 0 13 0;
#X connect 9 0 12 0;
#X connect 10 0 25 0;
#X connect 11 0 26 0;
#X connect 12 0 28 0;
#X connect 13 0 29 0;
#X connect 15 0 77 0;
#X connect 15 1 36 1;
#X connect 15 2 36 2;
#X connect 25 0 123 0;
#X connect 25 1 121 1;
#X connect 26 0 133 0;
#X connect 26 1 131 1;
#X connect 27 0 141 0;
#X connect 27 1 139 1;
#X connect 28 0 101 0;
#X connect 28 1 83 1;
#X connect 29 0 109 0;
#X connect 29 1 104 1;
#X connect 32 0 34 0;
#X connect 32 0 89 0;
#X connect 33 0 35 0;
#X connect 33 0 89 1;
#X connect 36 0 37 0;
#X connect 37 0 38 0;
#X connect 37 1 42 0;
#X connect 38 0 61 0;
#X connect 38 1 40 0;
#X connect 42 0 59 0;
#X connect 42 1 57 0;
#X connect 48 0 64 0;
#X connect 48 1 67 0;
#X connect 54 0 94 0;
#X connect 54 1 55 1;
#X connect 55 0 48 0;
#X connect 59 0 63 0;
#X connect 59 1 56 0;
#X connect 61 0 62 0;
#X connect 61 1 39 0;
#X connect 62 0 41 0;
#X connect 63 0 58 0;
#X connect 64 0 65 0;
#X connect 64 1 49 0;
#X connect 65 0 167 0;
#X connect 66 0 166 0;
#X connect 67 0 66 0;
#X connect 67 1 60 0;
#X connect 68 0 76 0;
#X connect 68 1 75 0;
#X connect 72 0 68 0;
#X connect 74 0 115 0;
#X connect 74 1 72 1;
#X connect 78 0 1 0;
#X connect 83 0 84 0;
#X connect 84 0 87 0;
#X connect 84 1 88 0;
#X connect 89 0 79 0;
#X connect 89 0 91 0;
#X connect 89 1 96 0;
#X connect 89 2 114 0;
#X connect 89 3 150 0;
#X connect 89 4 151 0;
#X connect 89 5 152 0;
#X connect 89 6 165 0;
#X connect 89 7 100 0;
#X connect 89 8 98 0;
#X connect 90 0 89 2;
#X connect 92 0 36 0;
#X connect 93 0 89 3;
#X connect 95 0 55 0;
#X connect 97 0 89 9;
#X connect 99 0 89 10;
#X connect 102 0 83 0;
#X connect 104 0 105 0;
#X connect 105 0 112 0;
#X connect 105 1 111 0;
#X connect 110 0 104 0;
#X connect 113 0 89 4;
#X connect 116 0 72 0;
#X connect 117 0 126 0;
#X connect 117 1 125 0;
#X connect 121 0 117 0;
#X connect 124 0 121 0;
#X connect 127 0 146 0;
#X connect 127 1 145 0;
#X connect 131 0 127 0;
#X connect 134 0 131 0;
#X connect 135 0 144 0;
#X connect 135 1 143 0;
#X connect 139 0 135 0;
#X connect 142 0 139 0;
#X connect 147 0 89 5;
#X connect 148 0 89 6;
#X connect 149 0 89 7;
#X connect 153 0 163 0;
#X connect 153 1 162 0;
#X connect 157 0 153 0;
#X connect 159 0 160 0;
#X connect 159 1 157 1;
#X connect 161 0 157 0;
#X connect 164 0 89 8;
#X restore 90 48 pd osc-parsing;
#N canvas 240 87 1109 548 saw_sine 0;
#X obj 95 107 osc~;
#X obj 164 108 phasor~;
#X obj 94 261 +~;
#X obj 94 230 *~;
#X obj 163 226 *~;
#X obj 164 134 *~ 2;
#X obj 164 157 -~ 1;
#X obj 259 129 hsl 128 15 0 1 0 0 empty empty empty -2 -8 0 10 -262144
-1 -1 10160 1;
#X obj 256 198 -;
#X msg 256 173 1;
#X obj 256 154 t b f;
#X obj 256 76 loadbang;
#X msg 256 100 0.8;
#X obj 95 67 inlet~;
#X obj 93 500 outlet~;
#X obj 93 453 *~;
#X obj 291 410 *~;
#X obj 292 495 outlet~;
#X text 94 40 oscillators;
#X obj 94 313 *~;
#X obj 441 70 bng 15 250 50 0 empty empty empty 17 7 0 10 -262144 -1
-1;
#X text 442 24 envelope;
#X obj 742 306 -;
#X msg 742 281 1;
#X obj 742 262 t b f;
#X obj 306 361 pack f 50;
#X obj 306 385 line~;
#X obj 810 210 loadbang;
#X msg 441 114 1;
#X msg 473 115 0;
#X obj 473 91 pipe 400;
#X obj 441 45 inlet trigger;
#X obj 477 138 inlet velocity;
#X obj 510 157 inlet attack;
#X obj 543 176 inlet decay;
#X obj 576 196 inlet sustain;
#X obj 609 217 inlet release;
#X text 534 90 <-- THIS IS RELEASE / off !!!;
#X text 461 68 <-- THIS IS ON !!!!;
#X text 741 208 panning;
#N canvas 281 37 759 654 adsr 0;
#X obj 115 121 inlet;
#X obj 445 161 inlet;
#X text 111 96 trigger;
#X obj 115 149 sel 0;
#X obj 254 165 t b;
#X obj 176 274 f \$1;
#X obj 176 299 pack 0 \$2;
#X obj 502 161 inlet;
#X obj 448 291 del \$2;
#X obj 468 439 line~;
#X obj 472 314 f \$4;
#X obj 511 389 pack 0 \$3;
#X obj 564 161 inlet;
#X obj 626 161 inlet;
#X obj 699 160 inlet;
#X msg 115 180 stop;
#X obj 622 316 pack 0 \$5;
#X text 445 139 level;
#X obj 511 365 * \$1;
#X obj 468 464 outlet~;
#X text 112 388 and pack with;
#X text 113 408 attack time;
#X text 41 136 if zero;
#X text 42 153 release;
#X text 22 170 and cancel;
#X text 53 187 decay;
#X text 294 282 on attack \, set a;
#X text 288 315 recall sustain value;
#X text 325 388 pack with decay time;
#X text 615 342 on release ramp;
#X text 616 359 back to zero;
#X obj 472 339 * 0.01;
#X text 57 577 Objects such as "f" and "pack" can be given dollar sign
arguments to initialize their contents from adsr's creation arguments.
Inlets are supplied to change them on the fly.;
#X text 23 12 ADSR ENVELOPE;
#X text 498 139 attack;
#X text 565 138 decay;
#X text 619 139 sustain;
#X text 696 139 release;
#X text 212 81 attack;
#X obj 214 102 moses;
#X obj 204 132 t b b;
#X msg 138 300 0;
#X text 30 283 optionally;
#X text 20 301 bash to zero;
#X text 35 256 ATTACK:;
#X text 59 487 When you send this patch a positive trigger it schedules
a line~ to do an attack and decay \, and if zero \, it starts the release
ramp.;
#X text 265 99 test for negative trigger;
#X text 263 123 if so \, zero;
#X text 264 139 the output;
#X text 288 175 in any case;
#X text 313 365 multiply by peak level;
#X text 290 296 delay for sustain;
#X text 286 338 convert from percent;
#X text 165 350 ... then;
#X text 113 369 recall peak level;
#X text 449 123 peak;
#X text 291 159 ... do this;
#X text 57 539 Negative triggers cause the output to jump to zero and
then attack (instead of attacking from the current location).;
#X text 218 11 Arguments: level \, attack time \, decay time \, sustain
level \, release time. A \, D \, and R are in msec and S is in percent.
This patch is used as an abstraction in various examples.;
#X text 24 27 this is from Miller's help;
#X text 25 40 files \, but isn't working;
#X text 25 51 so i made this abstraction;
#X floatatom 714 198 5 0 0 0 - - -;
#X floatatom 654 201 5 0 0 0 - - -;
#X floatatom 624 214 5 0 0 0 - - -;
#X floatatom 537 203 5 0 0 0 - - -;
#X floatatom 481 205 5 0 0 0 - - -;
#X connect 0 0 3 0;
#X connect 1 0 5 1;
#X connect 1 0 18 1;
#X connect 1 0 66 0;
#X connect 3 0 15 0;
#X connect 3 0 16 0;
#X connect 3 1 39 0;
#X connect 4 0 5 0;
#X connect 4 0 8 0;
#X connect 5 0 6 0;
#X connect 6 0 9 0;
#X connect 7 0 6 1;
#X connect 7 0 8 1;
#X connect 7 0 65 0;
#X connect 8 0 10 0;
#X connect 9 0 19 0;
#X connect 10 0 31 0;
#X connect 11 0 9 0;
#X connect 12 0 11 1;
#X connect 12 0 64 0;
#X connect 13 0 10 1;
#X connect 13 0 63 0;
#X connect 14 0 16 1;
#X connect 14 0 62 0;
#X connect 15 0 8 0;
#X connect 16 0 9 0;
#X connect 18 0 11 0;
#X connect 31 0 18 0;
#X connect 39 0 40 0;
#X connect 39 1 4 0;
#X connect 40 0 4 0;
#X connect 40 1 41 0;
#X connect 41 0 9 0;
#X restore 444 246 pd adsr 0 0.5 10 100 100 300;
#X msg 810 234 0.5;
#X obj 110 403 pack f 50;
#X obj 110 425 line~;
#X obj 742 226 inlet pan;
#X connect 0 0 3 0;
#X connect 1 0 5 0;
#X connect 2 0 19 0;
#X connect 3 0 2 0;
#X connect 4 0 2 1;
#X connect 5 0 6 0;
#X connect 6 0 4 0;
#X connect 7 0 10 0;
#X connect 7 0 3 1;
#X connect 8 0 4 1;
#X connect 9 0 8 0;
#X connect 10 0 9 0;
#X connect 10 1 8 1;
#X connect 11 0 12 0;
#X connect 12 0 7 0;
#X connect 13 0 0 0;
#X connect 13 0 1 0;
#X connect 15 0 14 0;
#X connect 16 0 17 0;
#X connect 19 0 15 0;
#X connect 19 0 16 0;
#X connect 20 0 28 0;
#X connect 20 0 30 0;
#X connect 22 0 42 0;
#X connect 23 0 22 0;
#X connect 24 0 23 0;
#X connect 24 1 22 1;
#X connect 25 0 26 0;
#X connect 26 0 16 1;
#X connect 27 0 41 0;
#X connect 28 0 40 0;
#X connect 29 0 40 0;
#X connect 30 0 29 0;
#X connect 31 0 20 0;
#X connect 32 0 40 1;
#X connect 33 0 40 2;
#X connect 34 0 40 3;
#X connect 35 0 40 4;
#X connect 36 0 40 5;
#X connect 40 0 19 1;
#X connect 41 0 24 0;
#X connect 41 0 25 0;
#X connect 42 0 43 0;
#X connect 43 0 15 1;
#X connect 44 0 24 0;
#X connect 44 0 25 0;
#X restore -25 481 pd saw_sine;
#X obj 118 549 output~;
#X obj 535 239 vsl 15 128 0 3000 0 0 0-attack 0-attack empty 0 -9 0
10 -262144 -1 -1 423 1;
#X obj 554 239 vsl 15 128 10 3000 0 0 0-decay 0-decay empty 0 -9 0
10 -262144 -1 -1 382 1;
#X obj 594 239 vsl 15 128 10 3000 0 0 0-release 0-release empty 0 -9
0 10 -262144 -1 -1 4205 1;
#X obj 575 239 vsl 15 128 0 100 0 0 0-sustain 0-sustain empty 0 -9
0 10 -262144 -1 -1 6350 1;
#X text 535 220 A;
#X text 555 221 D;
#X text 576 221 S;
#X text 595 222 R;
#X obj 503 240 vsl 15 128 0 127 0 0 0-velocity 0-velocity empty 0 -9
0 10 -262144 -1 -1 12700 1;
#X obj 627 240 vsl 15 128 0 1 0 0 0-pan 0-pan empty 0 -9 0 10 -262144
-1 -1 6350 1;
#X text 626 221 pan;
#X text 499 219 vel;
#X obj 38 454 r pan;
#X obj 11 391 r decay;
#X obj 20 411 r sustain;
#X obj 29 431 r release;
#X obj -7 352 r vel;
#X obj 2 371 r attack;
#X obj -16 329 r trigger;
#X msg 71 130 25;
#N canvas 289 189 279 341 process 0;
#X obj 34 192 freeverb~;
#X msg 178 114 width 1;
#X msg 179 137 wet 0.5;
#X msg 179 158 dry 0.5;
#X obj 140 55 bng 15 250 50 0 empty empty empty 17 7 0 10 -262144 -1
-1;
#X msg 178 92 damping 0.3;
#X msg 179 71 roomsize 0.1;
#X obj 140 30 loadbang;
#X obj 34 64 inlet~;
#X obj 34 274 outlet~;
#X obj 85 274 outlet~;
#X obj 85 65 inlet~;
#X connect 0 0 9 0;
#X connect 0 1 10 0;
#X connect 1 0 0 0;
#X connect 2 0 0 0;
#X connect 3 0 0 0;
#X connect 4 0 6 0;
#X connect 4 0 5 0;
#X connect 4 0 1 0;
#X connect 4 0 2 0;
#X connect 4 0 3 0;
#X connect 5 0 0 0;
#X connect 6 0 0 0;
#X connect 7 0 4 0;
#X connect 8 0 0 0;
#X connect 11 0 0 1;
#X restore 118 492 pd process;
#N canvas 289 189 279 341 process 0;
#X obj 34 192 freeverb~;
#X msg 178 114 width 1;
#X msg 179 137 wet 0.5;
#X msg 179 158 dry 0.5;
#X obj 140 55 bng 15 250 50 0 empty empty empty 17 7 0 10 -262144 -1
-1;
#X msg 178 92 damping 0.3;
#X msg 179 71 roomsize 0.1;
#X obj 140 30 loadbang;
#X obj 34 64 inlet~;
#X obj 34 274 outlet~;
#X obj 85 274 outlet~;
#X obj 85 65 inlet~;
#X connect 0 0 9 0;
#X connect 0 1 10 0;
#X connect 1 0 0 0;
#X connect 2 0 0 0;
#X connect 3 0 0 0;
#X connect 4 0 6 0;
#X connect 4 0 5 0;
#X connect 4 0 1 0;
#X connect 4 0 2 0;
#X connect 4 0 3 0;
#X connect 5 0 0 0;
#X connect 6 0 0 0;
#X connect 7 0 4 0;
#X connect 8 0 0 0;
#X connect 11 0 0 1;
#X restore -25 556 pd process;
#X obj 436 244 vsl 15 128 0 100 0 0 0-lfo-freq 0-lfo-freq empty 0 -9
0 10 -262144 -1 -1 127 1;
#X obj 458 244 vsl 15 128 0 100 0 0 0-lfo-amount 0-lfo-amount empty
0 -9 0 10 -262144 -1 -1 0 1;
#X text 436 223 LFO;
#X text -57 503 ignore this for now;
#X obj 139 241 r 0-lfo-amount;
#X obj 148 262 r 0-trigger;
#X obj 158 282 r 0-velocity;
#X obj 167 302 r 0-attack;
#X obj 173 321 r 0-decay;
#X obj 181 341 r 0-sustain;
#X obj 188 361 r 0-release;
#X obj 197 382 r 0-pan;
#X obj 279 243 r 1-lfo-amount;
#X obj 288 264 r 1-trigger;
#X obj 298 284 r 1-velocity;
#X obj 307 304 r 1-attack;
#X obj 313 323 r 1-decay;
#X obj 321 343 r 1-sustain;
#X obj 328 363 r 1-release;
#X obj 337 384 r 1-pan;
#X obj 532 130 s 0-trigger;
#X msg 433 68 60;
#X msg 461 68 61;
#X msg 491 68 62;
#X msg 519 68 63;
#X msg 551 68 64;
#X msg 579 68 65;
#X msg 637 68 67;
#X msg 666 68 68;
#X msg 694 68 69;
#X msg 724 68 70;
#X msg 752 68 71;
#X msg 609 68 66;
#X obj 117 94 r 0-notenum;
#X obj 432 107 s 0-notenum;
#X obj 259 100 r 1-notenum;
#X obj 259 178 mtof~;
#X obj 117 117 t b f;
#X obj 259 139 t b f;
#X obj 304 162 bng 15 250 50 0 empty empty empty 17 7 0 10 -262144
-1 -1;
#X obj 792 234 vsl 15 128 0 3000 0 0 1-attack 1-attack empty 0 -9 0
10 -262144 -1 -1 0 1;
#X obj 811 234 vsl 15 128 10 3000 0 0 1-decay 1-decay empty 0 -9 0
10 -262144 -1 -1 0 1;
#X obj 851 234 vsl 15 128 10 3000 0 0 1-release 1-release empty 0 -9
0 10 -262144 -1 -1 807 1;
#X obj 832 234 vsl 15 128 0 100 0 0 1-sustain 1-sustain empty 0 -9
0 10 -262144 -1 -1 9525 1;
#X text 792 215 A;
#X text 812 216 D;
#X text 833 216 S;
#X text 852 217 R;
#X obj 760 235 vsl 15 128 0 127 0 0 1-velocity 1-velocity empty 0 -9
0 10 -262144 -1 -1 12700 1;
#X obj 884 235 vsl 15 128 0 1 0 0 1-pan 1-pan empty 0 -9 0 10 -262144
-1 -1 6350 1;
#X text 883 216 pan;
#X text 756 214 vel;
#X obj 693 239 vsl 15 128 0 100 0 0 1-lfo-freq 1-lfo-freq empty 0 -9
0 10 -262144 -1 -1 0 1;
#X obj 715 239 vsl 15 128 0 100 0 0 1-lfo-amount 1-lfo-amount empty
0 -9 0 10 -262144 -1 -1 0 1;
#X text 693 218 LFO;
#X msg 694 99 60;
#X msg 722 99 61;
#X msg 752 99 62;
#X msg 780 99 63;
#X msg 812 99 64;
#X msg 840 99 65;
#X msg 898 99 67;
#X msg 927 99 68;
#X msg 955 99 69;
#X msg 985 99 70;
#X msg 1013 99 71;
#X msg 870 99 66;
#X obj 693 154 s 1-notenum;
#X floatatom 374 156 5 0 0 0 - - -;
#X obj 269 223 r 1-lfo-freq;
#X obj 129 221 r 0-lfo-freq;
#X obj 157 157 bng 15 250 50 0 empty empty empty 17 7 0 10 -262144
-1 -1;
#X obj 792 140 bng 15 250 50 0 empty empty empty 17 7 0 10 -262144
-1 -1;
#X obj 792 159 s 1-trigger;
#X obj 258 430 two_saws;
#X obj 118 428 two_saws;
#X text 433 199 VOICE 1;
#X text 691 199 VOICE 2;
#X connect 0 0 3 0;
#X connect 0 0 102 0;
#X connect 1 0 47 0;
#X connect 3 0 26 0;
#X connect 3 1 26 1;
#X connect 17 0 3 7;
#X connect 18 0 3 4;
#X connect 19 0 3 5;
#X connect 20 0 3 6;
#X connect 21 0 3 2;
#X connect 22 0 3 3;
#X connect 23 0 3 1;
#X connect 24 0 0 0;
#X connect 25 0 4 0;
#X connect 25 1 4 1;
#X connect 31 0 102 2;
#X connect 32 0 102 3;
#X connect 33 0 102 4;
#X connect 34 0 102 5;
#X connect 35 0 102 6;
#X connect 36 0 102 7;
#X connect 37 0 102 8;
#X connect 38 0 102 9;
#X connect 39 0 101 2;
#X connect 40 0 101 3;
#X connect 41 0 101 4;
#X connect 42 0 101 5;
#X connect 43 0 101 6;
#X connect 44 0 101 7;
#X connect 45 0 101 8;
#X connect 46 0 101 9;
#X connect 48 0 61 0;
#X connect 48 0 1 0;
#X connect 49 0 61 0;
#X connect 49 0 1 0;
#X connect 50 0 61 0;
#X connect 50 0 1 0;
#X connect 51 0 61 0;
#X connect 51 0 1 0;
#X connect 52 0 61 0;
#X connect 52 0 1 0;
#X connect 53 0 61 0;
#X connect 53 0 1 0;
#X connect 54 0 61 0;
#X connect 54 0 1 0;
#X connect 55 0 61 0;
#X connect 55 0 1 0;
#X connect 56 0 61 0;
#X connect 56 0 1 0;
#X connect 57 0 61 0;
#X connect 57 0 1 0;
#X connect 58 0 61 0;
#X connect 58 0 1 0;
#X connect 59 0 61 0;
#X connect 59 0 1 0;
#X connect 60 0 64 0;
#X connect 62 0 65 0;
#X connect 62 0 95 0;
#X connect 63 0 101 0;
#X connect 64 0 98 0;
#X connect 64 1 0 0;
#X connect 65 0 66 0;
#X connect 65 1 63 0;
#X connect 82 0 94 0;
#X connect 82 0 99 0;
#X connect 83 0 94 0;
#X connect 83 0 99 0;
#X connect 84 0 94 0;
#X connect 84 0 99 0;
#X connect 85 0 94 0;
#X connect 85 0 99 0;
#X connect 86 0 94 0;
#X connect 86 0 99 0;
#X connect 87 0 94 0;
#X connect 87 0 99 0;
#X connect 88 0 94 0;
#X connect 88 0 99 0;
#X connect 89 0 94 0;
#X connect 89 0 99 0;
#X connect 90 0 94 0;
#X connect 90 0 99 0;
#X connect 91 0 94 0;
#X connect 91 0 99 0;
#X connect 92 0 94 0;
#X connect 92 0 99 0;
#X connect 93 0 94 0;
#X connect 93 0 99 0;
#X connect 96 0 101 1;
#X connect 97 0 102 1;
#X connect 99 0 100 0;
#X connect 101 0 25 0;
#X connect 101 1 25 1;
#X connect 102 0 25 0;
#X connect 102 1 25 1;
