#N canvas 93 23 1103 708 10;
#X declare -lib mrpeach;
#X obj 1241 83 mtof~;
#N canvas 169 26 1280 711 osc-parsing 0;
#X obj 46 45 import mrpeach;
#X obj 46 108 unpackOSC;
#X obj 450 186 routeOSC /on;
#X obj 585 183 routeOSC /off;
#X text 44 25 OSC parsing;
#X obj 740 186 routeOSC /env;
#X obj 740 528 routeOSC /attack;
#X obj 1191 524 routeOSC /release;
#X obj 982 174 routeOSC /pan;
#X obj 1152 173 routeOSC /lfo;
#X obj 890 527 routeOSC /decay;
#X obj 1033 525 routeOSC /sustain;
#X obj 1293 201 routeOSC /amount;
#X obj 890 548 unpack f f;
#X obj 1033 546 unpack f f;
#X obj 1191 548 unpack f f;
#X obj 1152 229 unpack f f;
#X obj 1293 224 unpack f f;
#X obj 46 170 routeOSC /connect;
#X obj 267 185 routeOSC /disconnect;
#X obj 62 201 print con-clientID;
#X obj 267 213 print dis-clientID;
#X text 490 226 nn;
#X text 527 226 vel;
#X text 455 226 cID;
#X text 647 222 nn;
#X text 588 222 cID;
#X obj 585 207 unpack f f;
#X text 746 567 cID;
#X text 802 568 attack;
#X obj 740 550 unpack f f;
#X obj 450 244 s on-get-voice;
#X obj 46 74 udpreceive 1235;
#X obj -22 855 print coll-out;
#X obj 62 144 print osc-message;
#X text 1158 247 cID;
#X text 1213 246 lfo-freq;
#N canvas 104 134 1004 582 client-dict 0;
#X text 28 20 we need a coll for each of the messages that we will
be getting;
#X text 27 57 for a connect message: add the client ID to every single
one of the colls;
#X text 29 96 for a disconnect message: remove that client ID from
every single one of the colls;
#X obj 34 222 inlet;
#X obj 205 488 outlet;
#X msg 101 269 remove \$1;
#X obj 101 221 inlet;
#X text 32 201 connect;
#X text 101 201 disconnect;
#X text 204 192 on;
#X obj 205 211 inlet;
#X text 287 196 off;
#X obj 101 292 s discon;
#X obj 34 270 s con;
#X obj 213 361 r con;
#X obj 213 382 r discon;
#X obj 287 489 outlet;
#X obj 287 214 inlet;
#X obj 296 362 r con;
#X obj 297 384 r discon;
#X obj 380 491 outlet;
#X obj 380 214 inlet;
#X obj 393 357 r con;
#X obj 394 378 r discon;
#X obj 470 491 outlet;
#X obj 470 214 inlet;
#X obj 478 354 r con;
#X obj 480 375 r discon;
#X text 379 195 env/attack;
#X text 468 193 env/decay;
#X obj 555 490 outlet;
#X obj 555 213 inlet;
#X obj 568 356 r con;
#X obj 569 377 r discon;
#X obj 644 491 outlet;
#X obj 644 214 inlet;
#X obj 652 354 r con;
#X obj 654 375 r discon;
#X text 554 194 env/sustain;
#X text 644 193 env/release;
#X obj 730 491 outlet;
#X obj 730 214 inlet;
#X obj 738 364 r con;
#X obj 738 385 r discon;
#X obj 815 490 outlet;
#X obj 815 215 inlet;
#X obj 824 363 r con;
#X obj 825 385 r discon;
#X obj 903 488 outlet;
#X obj 903 211 inlet;
#X obj 916 354 r con;
#X obj 917 375 r discon;
#X text 729 195 pan;
#X text 811 197 lfo/freq;
#X text 902 192 lfo/attack;
#X msg 73 432 dump;
#X msg 27 432 clear;
#X msg 34 245 add \$1;
#X obj 205 460 trackClients;
#X obj 287 460 trackClients;
#X obj 380 463 trackClients;
#X obj 470 463 trackClients;
#X obj 555 462 trackClients;
#X obj 644 463 trackClients;
#X obj 730 463 trackClients;
#X obj 815 461 trackClients;
#X obj 903 460 trackClients;
#X obj 997 489 outlet;
#X obj 997 212 inlet;
#X obj 1010 355 r con;
#X obj 1011 376 r discon;
#X obj 1086 490 outlet;
#X obj 1086 213 inlet;
#X obj 1094 353 r con;
#X obj 1096 374 r discon;
#X obj 1172 490 outlet;
#X obj 1172 213 inlet;
#X obj 1180 363 r con;
#X obj 1180 384 r discon;
#X obj 1257 489 outlet;
#X obj 1257 214 inlet;
#X obj 1266 362 r con;
#X obj 1267 384 r discon;
#X obj 1345 487 outlet;
#X obj 1345 210 inlet;
#X obj 1358 353 r con;
#X obj 1359 374 r discon;
#X obj 997 461 trackClients;
#X obj 1086 462 trackClients;
#X obj 1172 462 trackClients;
#X obj 1257 460 trackClients;
#X obj 1345 459 trackClients;
#X text 996 193 rev/roomsize;
#X text 1086 192 rev/damping;
#X text 1171 194 rev/width;
#X text 1253 196 rev/wetdry;
#X text 1344 191 rev/freeze;
#X obj 1427 483 outlet;
#X obj 1427 206 inlet;
#X obj 1440 349 r con;
#X obj 1441 370 r discon;
#X obj 1427 455 trackClients;
#X text 1426 187 pads;
#X obj 108 495 outlet;
#X obj 108 467 trackClients;
#X obj 135 324 r con;
#X obj 135 345 r discon;
#X obj 101 245 t f f;
#X connect 3 0 57 0;
#X connect 5 0 12 0;
#X connect 6 0 107 0;
#X connect 10 0 58 0;
#X connect 14 0 58 0;
#X connect 15 0 58 0;
#X connect 17 0 59 0;
#X connect 18 0 59 0;
#X connect 19 0 59 0;
#X connect 21 0 60 0;
#X connect 22 0 60 0;
#X connect 23 0 60 0;
#X connect 25 0 61 0;
#X connect 26 0 61 0;
#X connect 27 0 61 0;
#X connect 31 0 62 0;
#X connect 32 0 62 0;
#X connect 33 0 62 0;
#X connect 35 0 63 0;
#X connect 36 0 63 0;
#X connect 37 0 63 0;
#X connect 41 0 64 0;
#X connect 42 0 64 0;
#X connect 43 0 64 0;
#X connect 45 0 65 0;
#X connect 46 0 65 0;
#X connect 47 0 65 0;
#X connect 49 0 66 0;
#X connect 50 0 66 0;
#X connect 51 0 66 0;
#X connect 55 0 58 0;
#X connect 55 0 89 0;
#X connect 55 0 90 0;
#X connect 55 0 91 0;
#X connect 55 0 88 0;
#X connect 55 0 87 0;
#X connect 55 0 101 0;
#X connect 55 0 104 0;
#X connect 56 0 58 0;
#X connect 56 0 59 0;
#X connect 56 0 60 0;
#X connect 56 0 61 0;
#X connect 56 0 62 0;
#X connect 56 0 63 0;
#X connect 56 0 64 0;
#X connect 56 0 65 0;
#X connect 56 0 66 0;
#X connect 56 0 87 0;
#X connect 56 0 88 0;
#X connect 56 0 89 0;
#X connect 56 0 90 0;
#X connect 56 0 91 0;
#X connect 56 0 101 0;
#X connect 56 0 104 0;
#X connect 57 0 13 0;
#X connect 58 0 4 0;
#X connect 59 0 16 0;
#X connect 60 0 20 0;
#X connect 61 0 24 0;
#X connect 62 0 30 0;
#X connect 63 0 34 0;
#X connect 64 0 40 0;
#X connect 65 0 44 0;
#X connect 66 0 48 0;
#X connect 68 0 87 0;
#X connect 69 0 87 0;
#X connect 70 0 87 0;
#X connect 72 0 88 0;
#X connect 73 0 88 0;
#X connect 74 0 88 0;
#X connect 76 0 89 0;
#X connect 77 0 89 0;
#X connect 78 0 89 0;
#X connect 80 0 90 0;
#X connect 81 0 90 0;
#X connect 82 0 90 0;
#X connect 84 0 91 0;
#X connect 85 0 91 0;
#X connect 86 0 91 0;
#X connect 87 0 67 0;
#X connect 88 0 71 0;
#X connect 89 0 75 0;
#X connect 90 0 79 0;
#X connect 91 0 83 0;
#X connect 98 0 101 0;
#X connect 99 0 101 0;
#X connect 100 0 101 0;
#X connect 101 0 97 0;
#X connect 104 0 103 0;
#X connect 105 0 104 0;
#X connect 106 0 104 0;
#X connect 107 0 5 0;
#X connect 107 1 104 0;
#X restore 51 633 pd client-dict;
#X obj 56 302 r on-get-voice;
#X obj 45 961 s on-voice-ind;
#X obj 62 324 r off-get-voice;
#X obj 585 240 s off-get-voice;
#X obj 51 940 s off-voice-ind;
#X obj 94 462 r lfo-freq-get-voice;
#X obj 94 791 s lfo-amount-voice-ind;
#X obj 100 484 r lfo-amount-get-voice;
#X obj 88 812 s lfo-freq-voice-ind;
#X obj 1152 266 s lfo-freq-get-voice;
#X text 1299 243 cID;
#X text 1349 243 lfo-amount;
#X obj 1293 275 s lfo-amount-get-voice;
#X obj 67 347 r env-attack-get-voice;
#X obj 57 919 s env-attack-voice-ind;
#X obj 740 586 s env-attack-get-voice;
#X text 895 563 cID;
#X text 954 563 decay;
#X obj 890 581 s env-decay-get-voice;
#X text 1038 564 cID;
#X text 1097 564 sustain;
#X obj 1033 582 s env-sustain-get-voice;
#X text 1196 565 cID;
#X text 1255 565 release;
#X obj 1191 582 s env-release-get-voice;
#X obj 73 368 r env-decay-get-voice;
#X obj 78 390 r env-sustain-get-voice;
#X obj 83 413 r env-release-get-voice;
#X obj 63 897 s env-decay-voice-ind;
#X obj 69 876 s env-sustain-voice-ind;
#X obj 76 855 s env-release-voice-ind;
#X text 987 214 cID;
#X text 1044 212 pan;
#X obj 982 195 unpack f f;
#X obj 982 232 s pan-get-voice;
#X obj 89 438 r pan-get-voice;
#X obj 82 833 s pan-voice-ind;
#X obj 426 699 s;
#X obj 426 618 symbol;
#X obj 426 640 t b s;
#X obj 426 664 f;
#X obj 324 695 s;
#X obj 324 612 symbol;
#X obj 324 564 unpack f f;
#X obj 324 634 t b s;
#X obj 324 660 f;
#X obj 324 511 r on-voice-ind;
#X obj 426 510 r on-voice-ind;
#X obj 426 565 unpack f f;
#X obj 426 536 pack f f;
#X msg 426 596 \$1-notenum-in;
#X msg 324 590 \$1-trigger;
#X msg 324 539 \$1 1;
#X text 425 493 note number;
#X text 323 493 trigger;
#X obj 683 466 s;
#X obj 683 385 symbol;
#X obj 683 407 t b s;
#X obj 683 431 f;
#X obj 583 461 s;
#X obj 583 378 symbol;
#X obj 583 330 unpack f f;
#X obj 583 400 t b s;
#X obj 583 426 f;
#X obj 683 332 unpack f f;
#X obj 683 303 pack f f;
#X msg 683 363 \$1-notenum-in;
#X msg 583 356 \$1-trigger;
#X text 682 260 note number;
#X text 582 259 trigger;
#X obj 683 277 r off-voice-ind;
#X obj 583 277 r off-voice-ind;
#X msg 583 305 \$1 0;
#X obj 751 821 s;
#X obj 752 697 symbol;
#X obj 752 719 t b s;
#X obj 752 740 f;
#X obj 752 653 unpack f f;
#X obj 752 632 pack f f;
#X msg 752 675 \$1-attack-in;
#X obj 901 821 s;
#X obj 902 691 symbol;
#X obj 902 713 t b s;
#X obj 902 734 f;
#X obj 902 648 unpack f f;
#X obj 902 626 pack f f;
#X obj 752 611 r env-attack-voice-ind;
#X msg 902 669 \$1-decay-in;
#X obj 902 605 r env-decay-voice-ind;
#X obj 1045 818 s;
#X obj 1045 694 symbol;
#X obj 1045 716 t b s;
#X obj 1045 737 f;
#X obj 1045 651 unpack f f;
#X obj 1045 629 pack f f;
#X obj 1045 608 r env-sustain-voice-ind;
#X msg 1045 672 \$1-sustain-in;
#X obj 1204 835 s;
#X obj 1203 690 symbol;
#X obj 1203 712 t b s;
#X obj 1203 733 f;
#X obj 1203 647 unpack f f;
#X obj 1203 625 pack f f;
#X obj 1203 604 r env-release-voice-ind;
#X msg 1203 668 \$1-release-in;
#X obj 994 414 s;
#X obj 994 341 symbol;
#X obj 994 363 t b s;
#X obj 994 384 f;
#X obj 994 298 unpack f f;
#X obj 994 276 pack f f;
#X obj 994 255 r pan-voice-ind;
#X msg 994 319 \$1-pan-in;
#X obj 1164 495 s;
#X obj 1164 374 symbol;
#X obj 1164 396 t b s;
#X obj 1164 417 f;
#X obj 1164 331 unpack f f;
#X obj 1164 309 pack f f;
#X obj 1164 288 r lfo-freq-voice-ind;
#X msg 1164 352 \$1-lfo-freq-in;
#X obj 1305 521 s;
#X obj 1305 388 symbol;
#X obj 1305 410 t b s;
#X obj 1305 431 f;
#X obj 1305 345 unpack f f;
#X obj 1305 323 pack f f;
#X obj 1305 301 r lfo-amount-voice-ind;
#X msg 1305 366 \$1-lfo-amount-in;
#X obj 1566 525 unpack f f;
#X obj 1728 523 unpack f f;
#X obj 1891 525 unpack f f;
#X text 1410 545 cID;
#X obj 1406 527 unpack f f;
#X text 1571 540 cID;
#X text 1733 541 cID;
#X text 1896 542 cID;
#X obj 1418 740 s;
#X obj 1418 674 symbol;
#X obj 1418 696 t b s;
#X obj 1418 717 f;
#X obj 1418 630 unpack f f;
#X obj 1418 609 pack f f;
#X obj 1578 732 s;
#X obj 1578 668 symbol;
#X obj 1578 690 t b s;
#X obj 1578 711 f;
#X obj 1578 625 unpack f f;
#X obj 1578 603 pack f f;
#X obj 1740 735 s;
#X obj 1740 671 symbol;
#X obj 1740 693 t b s;
#X obj 1740 714 f;
#X obj 1740 628 unpack f f;
#X obj 1740 606 pack f f;
#X obj 1903 731 s;
#X obj 1903 667 symbol;
#X obj 1903 689 t b s;
#X obj 1903 710 f;
#X obj 1903 624 unpack f f;
#X obj 1903 602 pack f f;
#X obj 1406 505 routeOSC /roomsize;
#X obj 1566 504 routeOSC /damping;
#X obj 1728 502 routeOSC /width;
#X obj 1891 501 routeOSC /wetdry;
#X obj 2056 525 unpack f f;
#X text 2061 542 cID;
#X obj 2068 731 s;
#X obj 2068 667 symbol;
#X obj 2068 689 t b s;
#X obj 2068 710 f;
#X obj 2068 624 unpack f f;
#X obj 2068 602 pack f f;
#X obj 2056 501 routeOSC /freeze;
#X text 1468 545 roomsize;
#X text 1630 540 damping;
#X text 1792 541 width;
#X text 1955 542 wetdry;
#X text 2120 542 freeze;
#X obj 1406 563 s rev-roomsize-get-voice;
#X obj 1418 588 r rev-roomsize-voice-ind;
#X obj 1566 558 s rev-damping-get-voice;
#X obj 1578 582 r rev-damping-voice-ind;
#X obj 1728 559 s rev-damping-get-voice;
#X obj 1740 585 r rev-damping-voice-ind;
#X obj 1891 559 s rev-wetdry-get-voice;
#X obj 1903 581 r rev-wetdry-voice-ind;
#X obj 2056 559 s rev-freeze-get-voice;
#X obj 2068 581 r rev-freeze-voice-ind;
#X msg 1418 652 \$1-rev-roomsize-in;
#X msg 1578 646 \$1-rev-damping-in;
#X msg 1740 649 \$1-rev-width-in;
#X msg 1903 645 \$1-rev-wetdry-in;
#X msg 2068 645 \$1-rev-freeze-in;
#X obj 104 506 r rev-roomsize-get-voice;
#X obj 109 528 r rev-damping-get-voice;
#X obj 101 769 s rev-roomsize-voice-ind;
#X obj 107 748 s rev-damping-voice-ind;
#X obj 120 570 r rev-wetdry-get-voice;
#X obj 126 590 r rev-freeze-get-voice;
#X obj 115 549 r rev-width-voice;
#X obj 126 683 s rev-freeze-voice-ind;
#X obj 119 705 s rev-wetdry-voice-ind;
#X obj 113 727 s rev-width-voice-ind;
#X text 220 10 example messages:;
#X text 377 45 /off clientID 60;
#X text 666 31 /pan clientID 0.5;
#X text 240 31 /connect clientID;
#X text 240 45 /disconnect clientID;
#X text 502 31 /env/attack clientID 0.5;
#X text 502 44 /env/decay clientID 0.2;
#X text 501 57 /env/sustain clientID 0.5;
#X text 501 69 /env/release clientID 0.5;
#X text 790 31 /lfo/freq clientID 0.01;
#X text 790 45 /lfo/amount clientID 0.5;
#X text 955 26 /rev/roomsize clientID 0.5;
#X text 955 39 /rev/damping clientID 0.2;
#X text 954 52 /rev/width clientID 0.5;
#X text 954 64 /rev/wetdry clientID 0.5;
#X text 953 77 /rev/freeze clientID 1;
#X obj 1821 230 unpack f f;
#X text 1827 249 cID;
#X obj 1833 458 s;
#X obj 1833 394 symbol;
#X obj 1833 416 t b s;
#X obj 1833 437 f;
#X obj 1833 351 unpack f f;
#X obj 1833 329 pack f f;
#X obj 1821 281 s pads-get-voice;
#X obj 1833 307 r pads-voice-ind;
#X msg 1833 372 \$1-pads-in;
#X obj 1821 175 routeOSC /pads;
#X obj 137 610 r pads-get-voice;
#X obj 135 658 s pads-voice-ind;
#X text 1886 244 pads-index;
#X obj 1164 454 exp;
#X obj 1164 473 * 0.0001;
#X obj 1164 435 * 13.8155;
#X obj 1305 475 exp;
#X obj 1305 494 * 0.0001;
#X obj 1305 456 * 13.8155;
#X obj 752 782 exp;
#X obj 752 763 * 17.2167;
#X obj 751 801 * 0.0001;
#X obj 902 779 exp;
#X obj 902 760 * 17.2167;
#X obj 901 798 * 0.0001;
#X obj 1204 785 exp;
#X obj 1204 763 * 17.2167;
#X obj 1204 807 * 0.0001;
#X obj 1045 776 * 100;
#X text 377 30 /on clientID 60;
#X obj 450 210 unpack f f f;
#X obj 533 706 s;
#X obj 533 625 symbol;
#X obj 533 647 t b s;
#X obj 533 671 f;
#X obj 533 517 r on-voice-ind;
#X obj 533 572 unpack f f;
#X obj 533 543 pack f f;
#X msg 533 603 \$1-velocity-in;
#X text 532 500 velocity;
#X obj 2015 529 print blah;
#X obj 1406 163 routeOSC /reverb;
#X obj 1152 204 routeOSC /frequency;
#X obj 268 246 r discon-voice-ind;
#X obj 268 371 s;
#X obj 268 297 symbol;
#X obj 268 323 t b s;
#X obj 37 985 s discon-voice-ind;
#X msg 268 274 \$1-reset-default-in;
#X connect 1 0 2 0;
#X connect 1 0 3 0;
#X connect 1 0 5 0;
#X connect 1 0 8 0;
#X connect 1 0 9 0;
#X connect 1 0 18 0;
#X connect 1 0 19 0;
#X connect 1 0 34 0;
#X connect 1 0 269 0;
#X connect 1 0 301 0;
#X connect 2 0 290 0;
#X connect 3 0 27 0;
#X connect 5 0 6 0;
#X connect 5 0 7 0;
#X connect 5 0 10 0;
#X connect 5 0 11 0;
#X connect 6 0 30 0;
#X connect 7 0 15 0;
#X connect 8 0 71 0;
#X connect 9 0 12 0;
#X connect 9 0 302 0;
#X connect 10 0 13 0;
#X connect 11 0 14 0;
#X connect 12 0 17 0;
#X connect 13 0 56 0;
#X connect 13 1 123 1;
#X connect 14 0 59 0;
#X connect 14 1 132 1;
#X connect 15 0 62 0;
#X connect 15 1 140 1;
#X connect 16 0 47 0;
#X connect 16 1 156 1;
#X connect 17 0 50 0;
#X connect 17 1 164 1;
#X connect 18 0 20 0;
#X connect 18 0 37 0;
#X connect 19 0 21 0;
#X connect 19 0 37 1;
#X connect 27 0 41 0;
#X connect 27 1 103 1;
#X connect 30 0 53 0;
#X connect 30 1 116 1;
#X connect 32 0 1 0;
#X connect 37 0 307 0;
#X connect 37 1 33 0;
#X connect 37 1 39 0;
#X connect 37 2 42 0;
#X connect 37 3 52 0;
#X connect 37 4 66 0;
#X connect 37 5 67 0;
#X connect 37 6 68 0;
#X connect 37 7 74 0;
#X connect 37 8 46 0;
#X connect 37 9 44 0;
#X connect 37 10 234 0;
#X connect 37 11 235 0;
#X connect 37 12 241 0;
#X connect 37 13 240 0;
#X connect 37 14 239 0;
#X connect 37 15 271 0;
#X connect 38 0 37 2;
#X connect 40 0 37 3;
#X connect 43 0 37 9;
#X connect 45 0 37 10;
#X connect 51 0 37 4;
#X connect 63 0 37 5;
#X connect 64 0 37 6;
#X connect 65 0 37 7;
#X connect 71 0 72 0;
#X connect 71 1 148 1;
#X connect 73 0 37 8;
#X connect 76 0 77 0;
#X connect 77 0 78 0;
#X connect 77 1 75 1;
#X connect 78 0 75 0;
#X connect 80 0 82 0;
#X connect 81 0 89 0;
#X connect 81 1 83 1;
#X connect 82 0 83 0;
#X connect 82 1 79 1;
#X connect 83 0 79 0;
#X connect 84 0 90 0;
#X connect 85 0 87 0;
#X connect 86 0 88 0;
#X connect 86 1 78 1;
#X connect 87 0 86 0;
#X connect 88 0 76 0;
#X connect 89 0 80 0;
#X connect 90 0 81 0;
#X connect 94 0 95 0;
#X connect 95 0 96 0;
#X connect 95 1 93 1;
#X connect 96 0 93 0;
#X connect 98 0 100 0;
#X connect 99 0 105 0;
#X connect 99 1 101 1;
#X connect 100 0 101 0;
#X connect 100 1 97 1;
#X connect 101 0 97 0;
#X connect 102 0 104 0;
#X connect 102 1 96 1;
#X connect 103 0 102 0;
#X connect 104 0 94 0;
#X connect 105 0 98 0;
#X connect 108 0 103 0;
#X connect 109 0 110 0;
#X connect 110 0 99 0;
#X connect 112 0 113 0;
#X connect 113 0 114 0;
#X connect 113 1 111 1;
#X connect 114 0 280 0;
#X connect 115 0 117 0;
#X connect 115 1 114 1;
#X connect 116 0 115 0;
#X connect 117 0 112 0;
#X connect 119 0 120 0;
#X connect 120 0 121 0;
#X connect 120 1 118 1;
#X connect 121 0 283 0;
#X connect 122 0 125 0;
#X connect 122 1 121 1;
#X connect 123 0 122 0;
#X connect 124 0 116 0;
#X connect 125 0 119 0;
#X connect 126 0 123 0;
#X connect 128 0 129 0;
#X connect 129 0 130 0;
#X connect 129 1 127 1;
#X connect 130 0 288 0;
#X connect 131 0 134 0;
#X connect 131 1 130 1;
#X connect 132 0 131 0;
#X connect 133 0 132 0;
#X connect 134 0 128 0;
#X connect 136 0 137 0;
#X connect 137 0 138 0;
#X connect 137 1 135 1;
#X connect 138 0 286 0;
#X connect 139 0 142 0;
#X connect 139 1 138 1;
#X connect 140 0 139 0;
#X connect 141 0 140 0;
#X connect 142 0 136 0;
#X connect 144 0 145 0;
#X connect 145 0 146 0;
#X connect 145 1 143 1;
#X connect 146 0 143 0;
#X connect 147 0 150 0;
#X connect 147 1 146 1;
#X connect 148 0 147 0;
#X connect 149 0 148 0;
#X connect 150 0 144 0;
#X connect 152 0 153 0;
#X connect 153 0 154 0;
#X connect 153 1 151 1;
#X connect 154 0 275 0;
#X connect 155 0 158 0;
#X connect 155 1 154 1;
#X connect 156 0 155 0;
#X connect 157 0 156 0;
#X connect 158 0 152 0;
#X connect 160 0 161 0;
#X connect 161 0 162 0;
#X connect 161 1 159 1;
#X connect 162 0 278 0;
#X connect 163 0 166 0;
#X connect 163 1 162 1;
#X connect 164 0 163 0;
#X connect 165 0 164 0;
#X connect 166 0 160 0;
#X connect 167 0 219 0;
#X connect 167 1 186 1;
#X connect 168 0 221 0;
#X connect 168 1 192 1;
#X connect 169 0 223 0;
#X connect 169 1 198 1;
#X connect 169 1 300 0;
#X connect 171 0 217 0;
#X connect 171 1 180 1;
#X connect 176 0 177 0;
#X connect 177 0 178 0;
#X connect 177 1 175 1;
#X connect 178 0 175 0;
#X connect 179 0 227 0;
#X connect 179 1 178 1;
#X connect 180 0 179 0;
#X connect 182 0 183 0;
#X connect 183 0 184 0;
#X connect 183 1 181 1;
#X connect 184 0 181 0;
#X connect 185 0 228 0;
#X connect 185 1 184 1;
#X connect 186 0 185 0;
#X connect 188 0 189 0;
#X connect 189 0 190 0;
#X connect 189 1 187 1;
#X connect 190 0 187 0;
#X connect 191 0 229 0;
#X connect 191 1 190 1;
#X connect 192 0 191 0;
#X connect 194 0 195 0;
#X connect 195 0 196 0;
#X connect 195 1 193 1;
#X connect 196 0 193 0;
#X connect 197 0 230 0;
#X connect 197 1 196 1;
#X connect 198 0 197 0;
#X connect 199 0 171 0;
#X connect 200 0 167 0;
#X connect 201 0 168 0;
#X connect 202 0 169 0;
#X connect 203 0 225 0;
#X connect 203 1 210 1;
#X connect 206 0 207 0;
#X connect 207 0 208 0;
#X connect 207 1 205 1;
#X connect 208 0 205 0;
#X connect 209 0 231 0;
#X connect 209 1 208 1;
#X connect 210 0 209 0;
#X connect 211 0 203 0;
#X connect 218 0 180 0;
#X connect 220 0 186 0;
#X connect 222 0 192 0;
#X connect 224 0 198 0;
#X connect 226 0 210 0;
#X connect 227 0 176 0;
#X connect 228 0 182 0;
#X connect 229 0 188 0;
#X connect 230 0 194 0;
#X connect 231 0 206 0;
#X connect 232 0 37 11;
#X connect 233 0 37 12;
#X connect 236 0 37 14;
#X connect 237 0 37 15;
#X connect 238 0 37 13;
#X connect 258 0 266 0;
#X connect 258 1 265 1;
#X connect 261 0 262 0;
#X connect 262 0 263 0;
#X connect 262 1 260 1;
#X connect 263 0 260 0;
#X connect 264 0 268 0;
#X connect 264 1 263 1;
#X connect 265 0 264 0;
#X connect 267 0 265 0;
#X connect 268 0 261 0;
#X connect 269 0 258 0;
#X connect 270 0 37 16;
#X connect 273 0 274 0;
#X connect 274 0 151 0;
#X connect 275 0 273 0;
#X connect 276 0 277 0;
#X connect 277 0 159 0;
#X connect 278 0 276 0;
#X connect 279 0 281 0;
#X connect 280 0 279 0;
#X connect 281 0 111 0;
#X connect 282 0 284 0;
#X connect 283 0 282 0;
#X connect 284 0 118 0;
#X connect 285 0 287 0;
#X connect 286 0 285 0;
#X connect 287 0 135 0;
#X connect 288 0 127 0;
#X connect 290 0 31 0;
#X connect 290 1 87 1;
#X connect 290 2 297 1;
#X connect 292 0 293 0;
#X connect 293 0 294 0;
#X connect 293 1 291 1;
#X connect 294 0 291 0;
#X connect 295 0 297 0;
#X connect 296 0 298 0;
#X connect 296 1 294 1;
#X connect 297 0 296 0;
#X connect 298 0 292 0;
#X connect 301 0 199 0;
#X connect 301 0 200 0;
#X connect 301 0 201 0;
#X connect 301 0 202 0;
#X connect 301 0 211 0;
#X connect 302 0 16 0;
#X connect 303 0 308 0;
#X connect 305 0 306 0;
#X connect 306 0 304 0;
#X connect 306 1 304 1;
#X connect 308 0 305 0;
#X restore 114 72 pd osc-parsing;
#N canvas 240 87 1109 548 saw_sine 0;
#X obj 95 107 osc~;
#X obj 164 108 phasor~;
#X obj 94 261 +~;
#X obj 94 230 *~;
#X obj 163 226 *~;
#X obj 164 134 *~ 2;
#X obj 164 157 -~ 1;
#X obj 259 129 hsl 128 15 0 1 0 0 empty empty empty -2 -8 0 10 -262144
-1 -1 10160 1;
#X obj 256 198 -;
#X msg 256 173 1;
#X obj 256 154 t b f;
#X obj 256 76 loadbang;
#X msg 256 100 0.8;
#X obj 95 67 inlet~;
#X obj 93 500 outlet~;
#X obj 93 453 *~;
#X obj 291 410 *~;
#X obj 292 495 outlet~;
#X text 94 40 oscillators;
#X obj 94 313 *~;
#X obj 441 70 bng 15 250 50 0 empty empty empty 17 7 0 10 -262144 -1
-1;
#X text 442 24 envelope;
#X obj 742 306 -;
#X msg 742 281 1;
#X obj 742 262 t b f;
#X obj 306 361 pack f 50;
#X obj 306 385 line~;
#X obj 810 210 loadbang;
#X msg 441 114 1;
#X msg 473 115 0;
#X obj 473 91 pipe 400;
#X obj 441 45 inlet trigger;
#X obj 477 138 inlet velocity;
#X obj 510 157 inlet attack;
#X obj 543 176 inlet decay;
#X obj 576 196 inlet sustain;
#X obj 609 217 inlet release;
#X text 534 90 <-- THIS IS RELEASE / off !!!;
#X text 461 68 <-- THIS IS ON !!!!;
#X text 741 208 panning;
#N canvas 281 37 759 654 adsr 0;
#X obj 115 121 inlet;
#X obj 445 161 inlet;
#X text 111 96 trigger;
#X obj 115 149 sel 0;
#X obj 254 165 t b;
#X obj 176 274 f \$1;
#X obj 176 299 pack 0 \$2;
#X obj 502 161 inlet;
#X obj 448 291 del \$2;
#X obj 468 439 line~;
#X obj 472 314 f \$4;
#X obj 511 389 pack 0 \$3;
#X obj 564 161 inlet;
#X obj 626 161 inlet;
#X obj 699 160 inlet;
#X msg 115 180 stop;
#X obj 622 316 pack 0 \$5;
#X text 445 139 level;
#X obj 511 365 * \$1;
#X obj 468 464 outlet~;
#X text 112 388 and pack with;
#X text 113 408 attack time;
#X text 41 136 if zero;
#X text 42 153 release;
#X text 22 170 and cancel;
#X text 53 187 decay;
#X text 294 282 on attack \, set a;
#X text 288 315 recall sustain value;
#X text 325 388 pack with decay time;
#X text 615 342 on release ramp;
#X text 616 359 back to zero;
#X obj 472 339 * 0.01;
#X text 57 577 Objects such as "f" and "pack" can be given dollar sign
arguments to initialize their contents from adsr's creation arguments.
Inlets are supplied to change them on the fly.;
#X text 23 12 ADSR ENVELOPE;
#X text 498 139 attack;
#X text 565 138 decay;
#X text 619 139 sustain;
#X text 696 139 release;
#X text 212 81 attack;
#X obj 214 102 moses;
#X obj 204 132 t b b;
#X msg 138 300 0;
#X text 30 283 optionally;
#X text 20 301 bash to zero;
#X text 35 256 ATTACK:;
#X text 59 487 When you send this patch a positive trigger it schedules
a line~ to do an attack and decay \, and if zero \, it starts the release
ramp.;
#X text 265 99 test for negative trigger;
#X text 263 123 if so \, zero;
#X text 264 139 the output;
#X text 288 175 in any case;
#X text 313 365 multiply by peak level;
#X text 290 296 delay for sustain;
#X text 286 338 convert from percent;
#X text 165 350 ... then;
#X text 113 369 recall peak level;
#X text 449 123 peak;
#X text 291 159 ... do this;
#X text 57 539 Negative triggers cause the output to jump to zero and
then attack (instead of attacking from the current location).;
#X text 218 11 Arguments: level \, attack time \, decay time \, sustain
level \, release time. A \, D \, and R are in msec and S is in percent.
This patch is used as an abstraction in various examples.;
#X text 24 27 this is from Miller's help;
#X text 25 40 files \, but isn't working;
#X text 25 51 so i made this abstraction;
#X floatatom 714 198 5 0 0 0 - - -;
#X floatatom 654 201 5 0 0 0 - - -;
#X floatatom 624 214 5 0 0 0 - - -;
#X floatatom 537 203 5 0 0 0 - - -;
#X floatatom 481 205 5 0 0 0 - - -;
#X connect 0 0 3 0;
#X connect 1 0 5 1;
#X connect 1 0 18 1;
#X connect 1 0 66 0;
#X connect 3 0 15 0;
#X connect 3 0 16 0;
#X connect 3 1 39 0;
#X connect 4 0 5 0;
#X connect 4 0 8 0;
#X connect 5 0 6 0;
#X connect 6 0 9 0;
#X connect 7 0 6 1;
#X connect 7 0 8 1;
#X connect 7 0 65 0;
#X connect 8 0 10 0;
#X connect 9 0 19 0;
#X connect 10 0 31 0;
#X connect 11 0 9 0;
#X connect 12 0 11 1;
#X connect 12 0 64 0;
#X connect 13 0 10 1;
#X connect 13 0 63 0;
#X connect 14 0 16 1;
#X connect 14 0 62 0;
#X connect 15 0 8 0;
#X connect 16 0 9 0;
#X connect 18 0 11 0;
#X connect 31 0 18 0;
#X connect 39 0 40 0;
#X connect 39 1 4 0;
#X connect 40 0 4 0;
#X connect 40 1 41 0;
#X connect 41 0 9 0;
#X restore 444 246 pd adsr 0 0.5 10 100 100 300;
#X msg 810 234 0.5;
#X obj 110 403 pack f 50;
#X obj 110 425 line~;
#X obj 742 226 inlet pan;
#X connect 0 0 3 0;
#X connect 1 0 5 0;
#X connect 2 0 19 0;
#X connect 3 0 2 0;
#X connect 4 0 2 1;
#X connect 5 0 6 0;
#X connect 6 0 4 0;
#X connect 7 0 10 0;
#X connect 7 0 3 1;
#X connect 8 0 4 1;
#X connect 9 0 8 0;
#X connect 10 0 9 0;
#X connect 10 1 8 1;
#X connect 11 0 12 0;
#X connect 12 0 7 0;
#X connect 13 0 0 0;
#X connect 13 0 1 0;
#X connect 15 0 14 0;
#X connect 16 0 17 0;
#X connect 19 0 15 0;
#X connect 19 0 16 0;
#X connect 20 0 28 0;
#X connect 20 0 30 0;
#X connect 22 0 42 0;
#X connect 23 0 22 0;
#X connect 24 0 23 0;
#X connect 24 1 22 1;
#X connect 25 0 26 0;
#X connect 26 0 16 1;
#X connect 27 0 41 0;
#X connect 28 0 40 0;
#X connect 29 0 40 0;
#X connect 30 0 29 0;
#X connect 31 0 20 0;
#X connect 32 0 40 1;
#X connect 33 0 40 2;
#X connect 34 0 40 3;
#X connect 35 0 40 4;
#X connect 36 0 40 5;
#X connect 40 0 19 1;
#X connect 41 0 24 0;
#X connect 41 0 25 0;
#X connect 42 0 43 0;
#X connect 43 0 15 1;
#X connect 44 0 24 0;
#X connect 44 0 25 0;
#X restore 1241 257 pd saw_sine;
#X obj 117 283 output~;
#X obj 1304 230 r pan;
#X obj 1277 167 r decay;
#X obj 1286 187 r sustain;
#X obj 1295 207 r release;
#X obj 1259 126 r vel;
#X obj 1268 147 r attack;
#X obj 1250 105 r trigger;
#N canvas 289 189 279 341 process 0;
#X obj 34 192 freeverb~;
#X msg 178 114 width 1;
#X obj 140 55 bng 15 250 50 0 empty empty empty 17 7 0 10 -262144 -1
-1;
#X msg 179 71 roomsize 0.1;
#X obj 140 30 loadbang;
#X obj 34 64 inlet~;
#X obj 34 274 outlet~;
#X obj 85 274 outlet~;
#X obj 85 65 inlet~;
#X msg 178 92 damping 0.9;
#X msg 179 137 wet 0.2;
#X msg 179 158 dry 0.8;
#X connect 0 0 6 0;
#X connect 0 1 7 0;
#X connect 1 0 0 0;
#X connect 2 0 3 0;
#X connect 2 0 9 0;
#X connect 2 0 1 0;
#X connect 2 0 10 0;
#X connect 2 0 11 0;
#X connect 3 0 0 0;
#X connect 4 0 2 0;
#X connect 5 0 0 0;
#X connect 8 0 0 1;
#X connect 9 0 0 0;
#X connect 10 0 0 0;
#X connect 11 0 0 0;
#X restore 117 150 pd process;
#N canvas 289 189 279 341 process 0;
#X obj 34 192 freeverb~;
#X msg 178 114 width 1;
#X msg 179 137 wet 0.5;
#X msg 179 158 dry 0.5;
#X obj 140 55 bng 15 250 50 0 empty empty empty 17 7 0 10 -262144 -1
-1;
#X msg 178 92 damping 0.3;
#X msg 179 71 roomsize 0.1;
#X obj 140 30 loadbang;
#X obj 34 64 inlet~;
#X obj 34 274 outlet~;
#X obj 85 274 outlet~;
#X obj 85 65 inlet~;
#X connect 0 0 9 0;
#X connect 0 1 10 0;
#X connect 1 0 0 0;
#X connect 2 0 0 0;
#X connect 3 0 0 0;
#X connect 4 0 6 0;
#X connect 4 0 5 0;
#X connect 4 0 1 0;
#X connect 4 0 2 0;
#X connect 4 0 3 0;
#X connect 5 0 0 0;
#X connect 6 0 0 0;
#X connect 7 0 4 0;
#X connect 8 0 0 0;
#X connect 11 0 0 1;
#X restore 1241 332 pd process;
#X text 1240 44 ignore this for now;
#X obj 1241 62 r 0-notenum;
#X obj 187 189 clip~ -1 1;
#X obj 117 188 clip~ -1 1;
#X obj 477 330 throw~ processL;
#X obj 114 618 throw~ processL;
#X obj 117 105 catch~ processL;
#X obj 174 127 catch~ processR;
#X obj 476 620 throw~ processL;
#X obj 736 327 throw~ processR;
#X obj 376 618 throw~ processR;
#X obj 738 619 throw~ processR;
#X obj 837 620 throw~ processL;
#X obj 115 917 throw~ processL;
#X obj 475 873 throw~ processL;
#X obj 1099 617 throw~ processR;
#X obj 375 917 throw~ processR;
#X obj 735 920 throw~ processR;
#X obj 835 920 throw~ processL;
#X obj 115 1205 throw~ processL;
#X obj 474 1206 throw~ processL;
#X obj 979 920 throw~ processR;
#X obj 374 1204 throw~ processR;
#X obj 735 1204 throw~ processR;
#X obj 832 1203 throw~ processL;
#X obj 1092 1203 throw~ processR;
#X obj 477 72 two_saws 0;
#X text 207 71 udp \, osc parsing goes on in this patch;
#X text 254 188 softclip here;
#X obj 188 221 expr~ 1.5*$v1*(1 - 0.33333*$v1*$v1);
#X obj 117 240 expr~ 1.5*$v1*(1 - 0.33333*$v1*$v1);
#X obj 114 360 two_saws 1;
#X obj 476 360 two_saws 2;
#X obj 837 360 two_saws 3;
#X obj 115 656 two_saws 4;
#X obj 475 656 two_saws 5;
#X obj 835 657 two_saws 6;
#X obj 115 941 two_saws 7;
#X obj 474 942 two_saws 8;
#X obj 832 942 two_saws 9;
#X connect 0 0 2 0;
#X connect 2 0 12 0;
#X connect 2 1 12 1;
#X connect 4 0 2 7;
#X connect 5 0 2 4;
#X connect 6 0 2 5;
#X connect 7 0 2 6;
#X connect 8 0 2 2;
#X connect 9 0 2 3;
#X connect 10 0 2 1;
#X connect 11 0 16 0;
#X connect 11 1 15 0;
#X connect 14 0 0 0;
#X connect 15 0 42 0;
#X connect 16 0 43 0;
#X connect 19 0 11 0;
#X connect 20 0 11 1;
#X connect 39 0 17 0;
#X connect 39 1 22 0;
#X connect 42 0 3 1;
#X connect 43 0 3 0;
#X connect 44 0 18 0;
#X connect 44 1 23 0;
#X connect 45 0 21 0;
#X connect 45 1 24 0;
#X connect 46 0 25 0;
#X connect 46 1 28 0;
#X connect 47 0 26 0;
#X connect 47 1 29 0;
#X connect 48 0 27 0;
#X connect 48 1 30 0;
#X connect 49 0 31 0;
#X connect 49 1 34 0;
#X connect 50 0 32 0;
#X connect 50 1 35 0;
#X connect 51 0 33 0;
#X connect 51 1 36 0;
#X connect 52 0 37 0;
#X connect 52 1 38 0;
