#N canvas 162 68 965 522 10;
#X obj -63 255 freeverb~;
#X obj -63 -101 inlet~;
#X obj -63 337 outlet~;
#X obj -12 337 outlet~;
#X obj -12 -101 inlet~;
#X obj 178 -59 s \$0-rev-roomsize;
#X obj 7 -62 r \$0-rev-roomsize;
#X obj 292 -58 s \$0-rev-damping;
#X obj 399 -57 s \$0-rev-width;
#X obj 19 -19 r \$0-rev-damping;
#X obj 37 22 r \$0-rev-width;
#X obj 493 -56 s \$0-rev-wetdry;
#X obj 57 66 r \$0-rev-wetdry;
#X msg 57 150 wet \$1;
#X msg 110 150 dry \$1;
#X obj 110 130 -;
#X msg 110 110 1;
#X obj 110 90 t b f;
#X obj 594 -56 s \$0-rev-freeze;
#X obj 112 179 r \$0-rev-freeze;
#X obj 706 -83 pack \$0;
#X msg 706 -59 \; \$1-rev-roomsize 0.01 \; \$1-rev-damping 0.1 \; \$1-rev-width
0.5 \; \$1-rev-wetdry 0.01 \; \$1-rev-freeze 0;
#X msg 112 204 freeze \$1;
#X msg 7 -41 roomsize \$1;
#X msg 19 0 damping \$1;
#X msg 37 43 width \$1;
#X obj 178 -91 inlet;
#X obj 292 -93 inlet;
#X obj 399 -91 inlet;
#X obj 493 -91 inlet;
#X obj 594 -94 inlet;
#X obj 706 -104 bng 15 250 50 0 empty empty empty 17 7 0 10 -262144
-1 -1;
#X connect 0 0 2 0;
#X connect 0 1 3 0;
#X connect 1 0 0 0;
#X connect 4 0 0 1;
#X connect 6 0 23 0;
#X connect 9 0 24 0;
#X connect 10 0 25 0;
#X connect 12 0 13 0;
#X connect 12 0 17 0;
#X connect 13 0 0 0;
#X connect 14 0 0 0;
#X connect 15 0 14 0;
#X connect 16 0 15 0;
#X connect 17 0 16 0;
#X connect 17 1 15 1;
#X connect 19 0 22 0;
#X connect 20 0 21 0;
#X connect 22 0 0 0;
#X connect 23 0 0 0;
#X connect 24 0 0 0;
#X connect 25 0 0 0;
#X connect 26 0 5 0;
#X connect 27 0 7 0;
#X connect 28 0 8 0;
#X connect 29 0 11 0;
#X connect 30 0 18 0;
#X connect 31 0 20 0;
