#N canvas 152 33 1217 704 10;
#X obj 85 373 *~ 2;
#X obj 85 402 -~ 1;
#X obj 154 370 *~ 2;
#X obj 154 399 -~ 1;
#X obj 85 436 +~;
#X obj 85 870 outlet~;
#X text 578 233 envelope;
#X obj 85 553 *~;
#X obj 85 628 *~;
#X obj 357 637 *~;
#X obj 100 583 pack f 50;
#X obj 100 605 line~;
#X obj 372 584 pack f 50;
#X obj 372 608 line~;
#X text 192 321 oscillators;
#X obj 156 870 outlet~;
#X obj 304 316 vsl 15 128 100 2100 0 0 empty empty empty 0 -9 0 10
-262144 -1 -1 0 1;
#X floatatom 304 455 5 0 0 0 - - -;
#X text 299 297 bp f0;
#X text 290 508 panning;
#N canvas 281 37 759 654 adsr 0;
#X obj 115 121 inlet;
#X obj 445 161 inlet;
#X text 111 96 trigger;
#X obj 115 149 sel 0;
#X obj 254 165 t b;
#X obj 176 274 f \$1;
#X obj 176 299 pack 0 \$2;
#X obj 502 161 inlet;
#X obj 448 291 del \$2;
#X obj 468 439 line~;
#X obj 472 314 f \$4;
#X obj 511 389 pack 0 \$3;
#X obj 564 161 inlet;
#X obj 626 161 inlet;
#X obj 699 160 inlet;
#X msg 115 180 stop;
#X obj 622 316 pack 0 \$5;
#X text 445 139 level;
#X obj 511 365 * \$1;
#X obj 468 464 outlet~;
#X text 112 388 and pack with;
#X text 113 408 attack time;
#X text 41 136 if zero;
#X text 42 153 release;
#X text 22 170 and cancel;
#X text 53 187 decay;
#X text 294 282 on attack \, set a;
#X text 288 315 recall sustain value;
#X text 325 388 pack with decay time;
#X text 615 342 on release ramp;
#X text 616 359 back to zero;
#X obj 472 339 * 0.01;
#X text 57 577 Objects such as "f" and "pack" can be given dollar sign
arguments to initialize their contents from adsr's creation arguments.
Inlets are supplied to change them on the fly.;
#X text 23 12 ADSR ENVELOPE;
#X text 498 139 attack;
#X text 565 138 decay;
#X text 619 139 sustain;
#X text 696 139 release;
#X text 212 81 attack;
#X obj 214 102 moses;
#X obj 204 132 t b b;
#X msg 138 300 0;
#X text 30 283 optionally;
#X text 20 301 bash to zero;
#X text 35 256 ATTACK:;
#X text 59 487 When you send this patch a positive trigger it schedules
a line~ to do an attack and decay \, and if zero \, it starts the release
ramp.;
#X text 265 99 test for negative trigger;
#X text 263 123 if so \, zero;
#X text 264 139 the output;
#X text 288 175 in any case;
#X text 313 365 multiply by peak level;
#X text 290 296 delay for sustain;
#X text 286 338 convert from percent;
#X text 165 350 ... then;
#X text 113 369 recall peak level;
#X text 449 123 peak;
#X text 291 159 ... do this;
#X text 57 539 Negative triggers cause the output to jump to zero and
then attack (instead of attacking from the current location).;
#X text 218 11 Arguments: level \, attack time \, decay time \, sustain
level \, release time. A \, D \, and R are in msec and S is in percent.
This patch is used as an abstraction in various examples.;
#X text 24 27 this is from Miller's help;
#X text 25 40 files \, but isn't working;
#X text 25 51 so i made this abstraction;
#X floatatom 714 198 5 0 0 0 - - -;
#X floatatom 654 201 5 0 0 0 - - -;
#X floatatom 624 214 5 0 0 0 - - -;
#X floatatom 537 203 5 0 0 0 - - -;
#X floatatom 481 205 5 0 0 0 - - -;
#X connect 0 0 3 0;
#X connect 1 0 5 1;
#X connect 1 0 18 1;
#X connect 1 0 66 0;
#X connect 3 0 15 0;
#X connect 3 0 16 0;
#X connect 3 1 39 0;
#X connect 4 0 5 0;
#X connect 4 0 8 0;
#X connect 5 0 6 0;
#X connect 6 0 9 0;
#X connect 7 0 6 1;
#X connect 7 0 8 1;
#X connect 7 0 65 0;
#X connect 8 0 10 0;
#X connect 9 0 19 0;
#X connect 10 0 31 0;
#X connect 11 0 9 0;
#X connect 12 0 11 1;
#X connect 12 0 64 0;
#X connect 13 0 10 1;
#X connect 13 0 63 0;
#X connect 14 0 16 1;
#X connect 14 0 62 0;
#X connect 15 0 8 0;
#X connect 16 0 9 0;
#X connect 18 0 11 0;
#X connect 31 0 18 0;
#X connect 39 0 40 0;
#X connect 39 1 4 0;
#X connect 40 0 4 0;
#X connect 40 1 41 0;
#X connect 41 0 9 0;
#X restore 578 377 pd adsr 0 0.5 10 100 100 300;
#X obj 85 664 clip~ -1 1;
#X obj 369 228 * 5;
#X obj 372 205 hsl 128 15 0 1 0 0 empty empty empty -2 -8 0 10 -262144
-1 -1 13 1;
#X obj 154 311 +~;
#X obj 85 311 -~;
#X obj 180 292 sig~;
#X obj 100 289 sig~;
#X text 367 148 fatness;
#X obj 369 165 loadbang;
#X obj 85 508 bp~ 1000 5;
#X obj 100 194 osc~;
#X obj 103 173 hsl 128 15 0 100 0 0 empty empty empty -2 -8 0 10 -262144
-1 -1 0 1;
#X obj 100 238 *~;
#X obj 142 213 hsl 128 15 0 100 0 0 empty empty empty -2 -8 0 10 -262144
-1 -1 0 1;
#X obj 85 260 +~;
#X text 207 156 LFO;
#X text 184 196 comment;
#X obj 357 660 clip~ -1 1;
#X text 256 28 lfo controls;
#N canvas 690 166 368 349 pan-weights 0;
#X obj 98 248 -;
#X msg 98 223 1;
#X obj 98 204 t b f;
#X obj 59 134 loadbang;
#X msg 59 158 0.5;
#X obj 122 106 inlet;
#X obj 98 299 outlet;
#X obj 207 303 outlet;
#X connect 0 0 6 0;
#X connect 1 0 0 0;
#X connect 2 0 1 0;
#X connect 2 1 0 1;
#X connect 3 0 4 0;
#X connect 4 0 2 0;
#X connect 5 0 2 0;
#X connect 5 0 7 0;
#X restore 291 557 pd pan-weights;
#X obj 261 44 inlet;
#X obj 375 42 inlet;
#X obj 500 42 inlet;
#X obj 606 42 inlet;
#X obj 719 40 inlet;
#X obj 818 41 inlet;
#X obj 912 40 inlet;
#X obj 1015 40 inlet;
#X obj 1122 38 inlet;
#X text 495 21 envelope controls;
#X text 1119 20 pan control;
#X obj 968 482 bng 15 250 50 0 empty empty empty 17 7 0 10 -262144
-1 -1;
#X text 965 438 envelope;
#X msg 968 526 1;
#X msg 1000 527 0;
#X obj 1000 503 pipe 400;
#X text 1061 502 <-- THIS IS RELEASE / off !!!;
#X text 990 482 <-- THIS IS ON !!!!;
#N canvas 281 37 759 654 adsr 0;
#X obj 115 121 inlet;
#X obj 445 161 inlet;
#X text 111 96 trigger;
#X obj 115 149 sel 0;
#X obj 254 165 t b;
#X obj 176 274 f \$1;
#X obj 176 299 pack 0 \$2;
#X obj 502 161 inlet;
#X obj 448 291 del \$2;
#X obj 468 439 line~;
#X obj 472 314 f \$4;
#X obj 511 389 pack 0 \$3;
#X obj 564 161 inlet;
#X obj 626 161 inlet;
#X obj 699 160 inlet;
#X msg 115 180 stop;
#X obj 622 316 pack 0 \$5;
#X text 445 139 level;
#X obj 511 365 * \$1;
#X obj 468 464 outlet~;
#X text 112 388 and pack with;
#X text 113 408 attack time;
#X text 41 136 if zero;
#X text 42 153 release;
#X text 22 170 and cancel;
#X text 53 187 decay;
#X text 294 282 on attack \, set a;
#X text 288 315 recall sustain value;
#X text 325 388 pack with decay time;
#X text 615 342 on release ramp;
#X text 616 359 back to zero;
#X obj 472 339 * 0.01;
#X text 57 577 Objects such as "f" and "pack" can be given dollar sign
arguments to initialize their contents from adsr's creation arguments.
Inlets are supplied to change them on the fly.;
#X text 23 12 ADSR ENVELOPE;
#X text 498 139 attack;
#X text 565 138 decay;
#X text 619 139 sustain;
#X text 696 139 release;
#X text 212 81 attack;
#X obj 214 102 moses;
#X obj 204 132 t b b;
#X msg 138 300 0;
#X text 30 283 optionally;
#X text 20 301 bash to zero;
#X text 35 256 ATTACK:;
#X text 59 487 When you send this patch a positive trigger it schedules
a line~ to do an attack and decay \, and if zero \, it starts the release
ramp.;
#X text 265 99 test for negative trigger;
#X text 263 123 if so \, zero;
#X text 264 139 the output;
#X text 288 175 in any case;
#X text 313 365 multiply by peak level;
#X text 290 296 delay for sustain;
#X text 286 338 convert from percent;
#X text 165 350 ... then;
#X text 113 369 recall peak level;
#X text 449 123 peak;
#X text 291 159 ... do this;
#X text 57 539 Negative triggers cause the output to jump to zero and
then attack (instead of attacking from the current location).;
#X text 218 11 Arguments: level \, attack time \, decay time \, sustain
level \, release time. A \, D \, and R are in msec and S is in percent.
This patch is used as an abstraction in various examples.;
#X text 24 27 this is from Miller's help;
#X text 25 40 files \, but isn't working;
#X text 25 51 so i made this abstraction;
#X floatatom 714 198 5 0 0 0 - - -;
#X floatatom 654 201 5 0 0 0 - - -;
#X floatatom 624 214 5 0 0 0 - - -;
#X floatatom 537 203 5 0 0 0 - - -;
#X floatatom 481 205 5 0 0 0 - - -;
#X connect 0 0 3 0;
#X connect 1 0 5 1;
#X connect 1 0 18 1;
#X connect 1 0 66 0;
#X connect 3 0 15 0;
#X connect 3 0 16 0;
#X connect 3 1 39 0;
#X connect 4 0 5 0;
#X connect 4 0 8 0;
#X connect 5 0 6 0;
#X connect 6 0 9 0;
#X connect 7 0 6 1;
#X connect 7 0 8 1;
#X connect 7 0 65 0;
#X connect 8 0 10 0;
#X connect 9 0 19 0;
#X connect 10 0 31 0;
#X connect 11 0 9 0;
#X connect 12 0 11 1;
#X connect 12 0 64 0;
#X connect 13 0 10 1;
#X connect 13 0 63 0;
#X connect 14 0 16 1;
#X connect 14 0 62 0;
#X connect 15 0 8 0;
#X connect 16 0 9 0;
#X connect 18 0 11 0;
#X connect 31 0 18 0;
#X connect 39 0 40 0;
#X connect 39 1 4 0;
#X connect 40 0 4 0;
#X connect 40 1 41 0;
#X connect 41 0 9 0;
#X restore 971 658 pd adsr 0 0.5 10 100 100 300;
#X obj 1004 621 / 127;
#X text 963 422 connect this envelope instead to debug within pd;
#X obj 100 153 r \$1-lfo-freq;
#X obj 578 252 r \$1-trigger;
#X obj 611 276 r \$1-velocity;
#X obj 644 296 r \$1-attack;
#X obj 677 315 r \$1-decay;
#X obj 710 334 r \$1-sustain;
#X obj 743 354 r \$1-release;
#X obj 968 457 r \$1-trigger;
#X obj 1004 557 r \$1-velocity;
#X obj 1037 577 r \$1-attack;
#X obj 1070 596 r \$1-decay;
#X obj 1103 615 r \$1-sustain;
#X obj 1136 635 r \$1-release;
#X obj 139 193 r \$1-lfo-amount;
#X obj 291 528 r \$1-pan;
#X obj 660 529 vsl 15 128 0 3000 0 0 \$1-attack \$1-attack-in A 5 -7
0 10 -245052 -1 -1 42 1;
#X obj 679 529 vsl 15 128 10 3000 0 0 \$1-decay \$1-decay-in D 5 -7
0 10 -245052 -1 -1 0 1;
#X obj 721 529 vsl 15 128 10 3000 0 0 \$1-release \$1-release-in R
5 -7 0 10 -245052 -1 -1 382 1;
#X obj 700 529 vsl 15 128 0 100 0 0 \$1-sustain \$1-sustain-in S 5
-7 0 10 -245052 -1 -1 9525 1;
#X obj 637 528 vsl 15 128 0 1 0 0 \$1-velocity \$1-velocity-in vel
0 -7 0 10 -245052 -1 -1 10795 1;
#X obj 755 528 vsl 15 128 0 1 0 0 \$1-pan \$1-pan-in pan 0 -7 0 10
-262072 -1 -1 6350 1;
#X obj 564 529 vsl 15 128 0 100 0 0 \$1-lfo-freq \$1-lfo-freq-in freq
-2 -7 0 10 -196352 -1 -1 0 1;
#X obj 591 529 vsl 15 128 0 100 0 0 \$1-lfo-amount \$1-lfo-amount-in
amount 0 -7 0 10 -196352 -1 -1 0 1;
#X text 561 496 LFO;
#X text 636 494 ENV;
#X text 750 493 PAN;
#X obj 866 169 loadbang;
#X text 862 153 load defaults;
#X floatatom 859 691 5 0 0 0 midi_note #1-notenum-in #1-notenum;
#X obj 86 49 inlet;
#X obj 86 131 mtof~;
#X obj 86 108 r \$1-notenum;
#X obj 866 191 float \$1;
#X obj 261 121 s \$1-lfo-freq-in;
#X obj 375 121 s \$1-lfo-amount-in;
#X obj 500 121 s \$1-trigger-in;
#X obj 606 120 s \$1-velocity-in;
#X obj 718 120 s \$1-attack-in;
#X obj 817 120 s \$1-decay-in;
#X obj 912 119 s \$1-sustain-in;
#X obj 1014 118 s \$1-release-in;
#X obj 1122 118 s \$1-pan-in;
#X text 746 758 these sliders have send-symbol: \$1-parameter and receive-symbol:
\$1-paramter-in;
#X obj 86 85 s \$1-notenum-in;
#X obj 912 84 * 100;
#X text 97 67 do a range for this?;
#X obj 719 80 exp;
#X obj 719 61 * 17.2167;
#X obj 718 99 * 0.0001;
#X obj 818 80 exp;
#X obj 818 61 * 17.2167;
#X obj 817 99 * 0.0001;
#X obj 1015 80 exp;
#X obj 1015 61 * 17.2167;
#X obj 1014 99 * 0.0001;
#X obj 261 82 exp;
#X obj 261 101 * 0.0001;
#X obj 261 63 * 13.8155;
#X obj 375 81 exp;
#X obj 375 100 * 0.0001;
#X obj 375 62 * 13.8155;
#X obj 141 253 sel 1;
#X obj 578 296 t f f;
#X obj 154 339 phasor~;
#X obj 85 336 phasor~;
#X obj 85 797 synth_rev;
#X text 788 492 REVERB;
#X obj 791 527 hsl 100 12 0 1 0 0 \$1-rev-roomsize \$1-rev-roomsize-in
roomsize 0 -5 0 10 -204786 -1 -1 99 1;
#X obj 792 556 hsl 100 12 0 1 0 0 \$1-rev-damping \$1-rev-damping-in
damping 0 -5 0 10 -204786 -1 -1 990 1;
#X obj 793 585 hsl 100 12 0 1 0 0 \$1-rev-width \$1-rev-width-in width
0 -5 0 10 -204786 -1 -1 4950 1;
#X obj 793 615 hsl 100 12 0 1 0 0 \$1-rev-wetdry \$1-rev-wetdry-in
wetdry 0 -5 0 10 -204786 -1 -1 99 1;
#X obj 878 638 tgl 15 0 \$1-rev-freeze \$1-rev-freeze-in freeze -40
7 0 10 -204786 -1 -1 0 1;
#X obj 102 685 r \$1-rev-roomsize;
#X obj 110 708 r \$1-rev-damping;
#X obj 119 729 r \$1-rev-width;
#X obj 127 751 r \$1-rev-wetdry;
#X obj 136 771 r \$1-rev-freeze;
#X text 1207 21 reverb controls;
#X obj 1210 38 inlet;
#X obj 1210 119 s \$1-rev-roomsize-in;
#X obj 1340 119 s \$1-rev-damping-in;
#X obj 1465 119 s \$1-rev-width-in;
#X obj 1577 119 s \$1-rev-wetdry-in;
#X obj 1698 120 s \$1-rev-freeze-in;
#X obj 1340 38 inlet;
#X obj 1465 40 inlet;
#X obj 1577 38 inlet;
#X obj 1698 39 inlet;
#X obj 156 849 expr~ 1.5*$v1*(1-0.333333*$v1*$v1);
#X obj 85 825 expr~ 1.5*$v1*(1-0.333333*$v1*$v1);
#X obj 85 468 *~ 0.1;
#X msg 369 184 0.001;
#X msg 146 280 0;
#X obj 350 720 animal_sampler;
#X obj 1830 38 inlet;
#X obj 565 682 hradio 24 1 0 9 \$1-pads \$1-pads-in PADS 0 -5 0 10
-191407 -1 -1 0;
#X obj 350 696 r \$1-pads;
#X obj 1830 119 s \$1-pads-in;
#X msg 866 218 \; \$1-lfo-freq-in 0 \; \$1-lfo-amount-in 0 \; \$1-velocity-in
0.85 \; \$1-attack-in 10 \; \$1-decay-in 10 \; \$1-sustain-in 75 \;
\$1-release-in 100 \; \$1-pan-in 0.5 \; \$1-rev-roomsize-in 0.01 \;
\$1-rev-damping-in 0.1 \; \$1-rev-width-in 0.5 \; \$1-rev-wetdry-in
0.01 \; \$1-rev-freeze-in 0;
#X obj 877 668 bng 15 250 50 0 \$1-reset-default \$1-reset-default-in
reset_default -80 7 0 10 -99865 -66577 -1;
#X obj 1924 35 inlet;
#X obj 1924 116 s \$1-reset-default-in;
#X obj 934 169 r \$1-reset-default;
#X obj 925 691 print bang;
#X connect 0 0 1 0;
#X connect 1 0 4 0;
#X connect 2 0 3 0;
#X connect 3 0 4 1;
#X connect 4 0 152 0;
#X connect 7 0 8 0;
#X connect 7 0 9 0;
#X connect 8 0 21 0;
#X connect 9 0 38 0;
#X connect 10 0 11 0;
#X connect 11 0 8 1;
#X connect 12 0 13 0;
#X connect 13 0 9 1;
#X connect 16 0 17 0;
#X connect 16 0 30 1;
#X connect 20 0 7 1;
#X connect 21 0 127 0;
#X connect 22 0 26 0;
#X connect 22 0 27 0;
#X connect 23 0 22 0;
#X connect 24 0 125 0;
#X connect 25 0 126 0;
#X connect 26 0 24 1;
#X connect 27 0 25 1;
#X connect 29 0 153 0;
#X connect 30 0 7 0;
#X connect 31 0 33 0;
#X connect 32 0 31 0;
#X connect 33 0 35 1;
#X connect 34 0 33 1;
#X connect 35 0 24 0;
#X connect 35 0 25 0;
#X connect 38 0 127 1;
#X connect 40 0 10 0;
#X connect 40 1 12 0;
#X connect 41 0 119 0;
#X connect 42 0 122 0;
#X connect 43 0 97 0;
#X connect 44 0 98 0;
#X connect 45 0 109 0;
#X connect 46 0 112 0;
#X connect 47 0 106 0;
#X connect 48 0 115 0;
#X connect 49 0 103 0;
#X connect 52 0 54 0;
#X connect 52 0 56 0;
#X connect 54 0 59 0;
#X connect 55 0 59 0;
#X connect 56 0 55 0;
#X connect 60 0 59 1;
#X connect 62 0 32 0;
#X connect 63 0 124 0;
#X connect 64 0 20 1;
#X connect 65 0 20 2;
#X connect 66 0 20 3;
#X connect 67 0 20 4;
#X connect 68 0 20 5;
#X connect 69 0 52 0;
#X connect 70 0 60 0;
#X connect 71 0 59 2;
#X connect 72 0 59 3;
#X connect 73 0 59 4;
#X connect 74 0 59 5;
#X connect 75 0 34 0;
#X connect 76 0 40 0;
#X connect 88 0 94 0;
#X connect 91 0 105 0;
#X connect 92 0 35 0;
#X connect 93 0 92 0;
#X connect 94 0 160 0;
#X connect 106 0 101 0;
#X connect 108 0 110 0;
#X connect 109 0 108 0;
#X connect 110 0 99 0;
#X connect 111 0 113 0;
#X connect 112 0 111 0;
#X connect 113 0 100 0;
#X connect 114 0 116 0;
#X connect 115 0 114 0;
#X connect 116 0 102 0;
#X connect 117 0 118 0;
#X connect 118 0 95 0;
#X connect 119 0 117 0;
#X connect 120 0 121 0;
#X connect 121 0 96 0;
#X connect 122 0 120 0;
#X connect 123 0 154 0;
#X connect 124 0 20 0;
#X connect 124 1 123 0;
#X connect 125 0 2 0;
#X connect 126 0 0 0;
#X connect 127 0 151 0;
#X connect 127 1 150 0;
#X connect 134 0 127 2;
#X connect 135 0 127 3;
#X connect 136 0 127 4;
#X connect 137 0 127 5;
#X connect 138 0 127 6;
#X connect 140 0 141 0;
#X connect 146 0 142 0;
#X connect 147 0 143 0;
#X connect 148 0 144 0;
#X connect 149 0 145 0;
#X connect 150 0 15 0;
#X connect 151 0 5 0;
#X connect 152 0 30 0;
#X connect 153 0 23 0;
#X connect 154 0 126 1;
#X connect 154 0 125 1;
#X connect 155 0 127 0;
#X connect 155 0 127 1;
#X connect 156 0 159 0;
#X connect 158 0 155 0;
#X connect 161 0 165 0;
#X connect 162 0 163 0;
#X connect 164 0 94 0;
#X coords 0 -1 1 1 355 250 1 550 470;
